<svg width="968" height="355" viewBox="0 0 968 355" fill="none" xmlns="http://www.w3.org/2000/svg">
<g clip-path="url(#clip0_1_2)">
<path d="M582.907 353.449H364.407V74.9226C364.407 38.6747 393.897 9.18454 430.145 9.18454H517.169C553.417 9.18454 582.907 38.6747 582.907 74.9226V353.449Z" fill="#E6E6E6"/>
<path d="M508.239 71.8551H440.025C434.549 71.8551 430.093 67.3998 430.093 61.923V43.6767C430.093 38.1999 434.549 33.7446 440.025 33.7446H508.239C513.715 33.7446 518.171 38.1999 518.171 43.6767V61.923C518.171 67.3998 513.715 71.8551 508.239 71.8551V71.8551Z" fill="white"/>
<path d="M475.774 151.04V14.6894H474.927V151.04H475.774Z" fill="#E6E6E6"/>
<path d="M557.296 301.788H539.918C534.903 301.788 530.823 297.708 530.823 292.692V239.745C530.823 234.729 534.903 230.649 539.918 230.649H557.296C562.312 230.649 566.392 234.729 566.392 239.745V292.692C566.392 297.708 562.312 301.788 557.296 301.788V301.788Z" fill="white"/>
<path d="M443.812 339.052H395.946C390.93 339.052 386.85 334.971 386.85 329.956V236.357C386.85 231.342 390.93 227.261 395.946 227.261H443.812C448.828 227.261 452.908 231.342 452.908 236.357V329.956C452.908 334.971 448.828 339.052 443.812 339.052V339.052Z" fill="white"/>
<path d="M454.079 234.46H385.724C383.151 234.46 380.976 232.878 380.183 230.431C379.39 227.984 380.223 225.428 382.306 223.917L416.85 198.884C418.916 197.388 421.683 197.402 423.734 198.921L457.545 223.954C459.602 225.476 460.412 228.03 459.611 230.46C458.809 232.89 456.638 234.46 454.079 234.46V234.46Z" fill="#CCCCCC"/>
<path d="M564.416 235.307H532.844C530.272 235.307 528.097 233.725 527.303 231.278C526.51 228.831 527.343 226.274 529.426 224.764L545.381 213.202C547.448 211.705 550.215 211.719 552.265 213.238L567.882 224.801C569.939 226.322 570.75 228.876 569.948 231.306C569.146 233.736 566.975 235.307 564.416 235.307V235.307Z" fill="#CCCCCC"/>
<path d="M550.333 185.763H530.791C526.372 185.763 522.777 182.168 522.777 177.749V122.638C522.777 118.219 526.372 114.623 530.791 114.623H550.333C554.752 114.623 558.347 118.219 558.347 122.638V177.749C558.347 182.168 554.752 185.763 550.333 185.763Z" fill="white"/>
<path d="M483.428 185.763H463.886C459.467 185.763 455.872 182.168 455.872 177.749V122.638C455.872 118.219 459.467 114.623 463.886 114.623H483.428C487.847 114.623 491.442 118.219 491.442 122.638V177.749C491.442 182.168 487.847 185.763 483.428 185.763Z" fill="white"/>
<path d="M415.676 185.763H396.134C391.715 185.763 388.12 182.168 388.12 177.749V122.638C388.12 118.219 391.715 114.623 396.134 114.623H415.676C420.095 114.623 423.69 118.219 423.69 122.638V177.749C423.69 182.168 420.095 185.763 415.676 185.763Z" fill="white"/>
<path d="M556.231 120.975H391.082C388.124 120.975 386.313 118.88 385.831 116.805C385.348 114.729 386.049 112.05 388.704 110.745L472.164 69.732C473.668 68.9935 475.461 69.0001 476.961 69.7527L558.65 110.765C560.965 111.928 562.075 114.308 561.478 116.828C560.88 119.347 558.821 120.975 556.231 120.975V120.975Z" fill="#CCCCCC"/>
<path d="M582.483 353.026H372.907V331.756C372.907 314.999 397.714 301.365 428.207 301.365H582.483V353.026V353.026Z" fill="#5C5656"/>
<path d="M501.181 271.3H490.171V311.951H501.181V271.3Z" fill="#5C5656"/>
<path d="M582.483 271.3H571.474V311.951H582.483V271.3Z" fill="#5C5656"/>
<path d="M574.861 274.687H499.487V275.534H574.861V274.687Z" fill="#5C5656"/>
<path d="M566.392 150.193H383.462V151.04H566.392V150.193Z" fill="#E6E6E6"/>
<path d="M574.861 288.238H499.487V289.085H574.861V288.238Z" fill="#5C5656"/>
<path d="M574.861 295.013H499.487V295.86H574.861V295.013Z" fill="#5C5656"/>
<path d="M516.428 37.3588H430.886C429.554 37.3588 428.429 36.5409 428.018 35.2738C427.607 34.0076 428.039 32.6843 429.117 31.9028L472.346 0.575765C473.416 -0.197525 474.848 -0.192565 475.909 0.594785L518.221 31.9218C519.286 32.7091 519.705 34.0308 519.291 35.2887C518.876 36.5458 517.752 37.3588 516.428 37.3588V37.3588Z" fill="#CCCCCC"/>
<path d="M405.481 284.003H390.237V285.697H405.481V284.003Z" fill="#E6E6E6"/>
<path d="M334.907 353.449H116.407V74.9226C116.407 38.6747 145.897 9.18454 182.145 9.18454H269.169C305.417 9.18454 334.907 38.6747 334.907 74.9226V353.449Z" fill="#E6E6E6"/>
<path d="M260.239 71.8551H192.025C186.549 71.8551 182.093 67.3998 182.093 61.923V43.6767C182.093 38.1999 186.549 33.7446 192.025 33.7446H260.239C265.715 33.7446 270.171 38.1999 270.171 43.6767V61.923C270.171 67.3998 265.715 71.8551 260.239 71.8551V71.8551Z" fill="white"/>
<path d="M227.774 151.04V14.6894H226.927V151.04H227.774Z" fill="#E6E6E6"/>
<path d="M309.296 301.788H291.918C286.903 301.788 282.823 297.708 282.823 292.692V239.745C282.823 234.729 286.903 230.649 291.918 230.649H309.296C314.312 230.649 318.392 234.729 318.392 239.745V292.692C318.392 297.708 314.312 301.788 309.296 301.788V301.788Z" fill="white"/>
<path d="M195.812 339.052H147.946C142.93 339.052 138.85 334.971 138.85 329.956V236.357C138.85 231.342 142.93 227.261 147.946 227.261H195.812C200.828 227.261 204.908 231.342 204.908 236.357V329.956C204.908 334.971 200.828 339.052 195.812 339.052V339.052Z" fill="white"/>
<path d="M206.079 234.46H137.724C135.152 234.46 132.976 232.878 132.183 230.431C131.39 227.984 132.223 225.428 134.306 223.917L168.85 198.884C170.916 197.388 173.683 197.402 175.734 198.921L209.545 223.954C211.602 225.476 212.412 228.03 211.611 230.46C210.809 232.89 208.638 234.46 206.079 234.46V234.46Z" fill="#CCCCCC"/>
<path d="M316.416 235.307H284.844C282.272 235.307 280.097 233.725 279.303 231.278C278.509 228.831 279.343 226.274 281.426 224.764L297.382 213.202C299.448 211.705 302.215 211.719 304.265 213.238L319.882 224.801C321.939 226.322 322.75 228.876 321.948 231.306C321.146 233.736 318.975 235.307 316.416 235.307V235.307Z" fill="#CCCCCC"/>
<path d="M302.333 185.763H282.791C278.372 185.763 274.777 182.168 274.777 177.749V122.638C274.777 118.219 278.372 114.623 282.791 114.623H302.333C306.752 114.623 310.347 118.219 310.347 122.638V177.749C310.347 182.168 306.752 185.763 302.333 185.763V185.763Z" fill="white"/>
<path d="M235.428 185.763H215.886C211.467 185.763 207.872 182.168 207.872 177.749V122.638C207.872 118.219 211.467 114.623 215.886 114.623H235.428C239.847 114.623 243.442 118.219 243.442 122.638V177.749C243.442 182.168 239.847 185.763 235.428 185.763Z" fill="white"/>
<path d="M167.676 185.763H148.134C143.715 185.763 140.12 182.168 140.12 177.749V122.638C140.12 118.219 143.715 114.623 148.134 114.623H167.676C172.095 114.623 175.69 118.219 175.69 122.638V177.749C175.69 182.168 172.095 185.763 167.676 185.763Z" fill="white"/>
<path d="M308.231 120.975H143.082C140.124 120.975 138.313 118.88 137.831 116.805C137.348 114.729 138.049 112.05 140.704 110.745L224.164 69.732C225.668 68.9935 227.461 69.0001 228.961 69.7527L310.65 110.765C312.965 111.928 314.075 114.308 313.478 116.828C312.88 119.347 310.821 120.975 308.231 120.975V120.975Z" fill="#CCCCCC"/>
<path d="M334.483 353.026H219.729V331.756C219.729 314.999 233.312 301.365 250.008 301.365H334.483V353.026V353.026Z" fill="#5C5656"/>
<path d="M253.181 271.3H242.171V311.951H253.181V271.3Z" fill="#5C5656"/>
<path d="M334.483 271.3H323.474V311.951H334.483V271.3Z" fill="#5C5656"/>
<path d="M326.861 274.687H251.487V275.534H326.861V274.687Z" fill="#5C5656"/>
<path d="M318.392 150.193H135.462V151.04H318.392V150.193Z" fill="#E6E6E6"/>
<path d="M326.861 288.238H251.487V289.085H326.861V288.238Z" fill="#5C5656"/>
<path d="M326.861 295.013H251.487V295.86H326.861V295.013Z" fill="#5C5656"/>
<path d="M268.428 37.3588H182.886C181.554 37.3588 180.429 36.5409 180.018 35.2738C179.608 34.0076 180.039 32.6843 181.117 31.9028L224.346 0.575765C225.416 -0.197525 226.848 -0.192565 227.909 0.594785L270.221 31.9218C271.286 32.7091 271.705 34.0308 271.291 35.2887C270.876 36.5458 269.752 37.3588 268.428 37.3588V37.3588Z" fill="#CCCCCC"/>
<path d="M157.481 284.003H142.237V285.697H157.481V284.003Z" fill="#E6E6E6"/>
<path d="M822.907 353.449H604.407V74.9226C604.407 38.6747 633.897 9.18454 670.145 9.18454H757.169C793.417 9.18454 822.907 38.6747 822.907 74.9226V353.449Z" fill="#E6E6E6"/>
<path d="M748.239 71.8551H680.025C674.549 71.8551 670.093 67.3998 670.093 61.923V43.6767C670.093 38.1999 674.549 33.7446 680.025 33.7446H748.239C753.715 33.7446 758.171 38.1999 758.171 43.6767V61.923C758.171 67.3998 753.715 71.8551 748.239 71.8551Z" fill="white"/>
<path d="M715.774 151.04V14.6894H714.927V151.04H715.774Z" fill="#E6E6E6"/>
<path d="M797.296 301.788H779.918C774.903 301.788 770.823 297.708 770.823 292.692V239.745C770.823 234.729 774.903 230.649 779.918 230.649H797.296C802.312 230.649 806.392 234.729 806.392 239.745V292.692C806.392 297.708 802.312 301.788 797.296 301.788V301.788Z" fill="white"/>
<path d="M683.812 339.052H635.946C630.93 339.052 626.85 334.971 626.85 329.956V236.357C626.85 231.342 630.93 227.261 635.946 227.261H683.812C688.828 227.261 692.908 231.342 692.908 236.357V329.956C692.908 334.971 688.828 339.052 683.812 339.052Z" fill="white"/>
<path d="M694.079 234.46H625.724C623.152 234.46 620.976 232.878 620.183 230.431C619.39 227.984 620.223 225.428 622.306 223.917L656.85 198.884C658.916 197.388 661.683 197.402 663.734 198.921L697.545 223.954C699.602 225.476 700.412 228.03 699.611 230.46C698.809 232.89 696.638 234.46 694.079 234.46V234.46Z" fill="#CCCCCC"/>
<path d="M804.416 235.307H772.844C770.272 235.307 768.097 233.725 767.303 231.278C766.51 228.831 767.343 226.274 769.426 224.764L785.381 213.202C787.448 211.705 790.215 211.719 792.265 213.238L807.882 224.801C809.939 226.322 810.75 228.876 809.948 231.306C809.146 233.736 806.975 235.307 804.416 235.307V235.307Z" fill="#CCCCCC"/>
<path d="M790.333 185.763H770.791C766.372 185.763 762.777 182.168 762.777 177.749V122.638C762.777 118.219 766.372 114.623 770.791 114.623H790.333C794.752 114.623 798.347 118.219 798.347 122.638V177.749C798.347 182.168 794.752 185.763 790.333 185.763Z" fill="white"/>
<path d="M723.428 185.763H703.886C699.467 185.763 695.872 182.168 695.872 177.749V122.638C695.872 118.219 699.467 114.623 703.886 114.623H723.428C727.847 114.623 731.442 118.219 731.442 122.638V177.749C731.442 182.168 727.847 185.763 723.428 185.763Z" fill="white"/>
<path d="M655.676 185.763H636.134C631.715 185.763 628.12 182.168 628.12 177.749V122.638C628.12 118.219 631.715 114.623 636.134 114.623H655.676C660.095 114.623 663.69 118.219 663.69 122.638V177.749C663.69 182.168 660.095 185.763 655.676 185.763Z" fill="white"/>
<path d="M796.231 120.975H631.082C628.124 120.975 626.313 118.88 625.831 116.805C625.348 114.729 626.049 112.05 628.704 110.745L712.164 69.732C713.668 68.9935 715.461 69.0001 716.961 69.7527L798.65 110.765C800.965 111.928 802.075 114.308 801.478 116.828C800.88 119.347 798.821 120.975 796.231 120.975V120.975Z" fill="#CCCCCC"/>
<path d="M822.483 353.026H707.729V331.756C707.729 314.999 721.312 301.365 738.008 301.365H822.483V353.026V353.026Z" fill="#5C5656"/>
<path d="M741.181 271.3H730.171V311.951H741.181V271.3Z" fill="#5C5656"/>
<path d="M822.483 271.3H811.474V311.951H822.483V271.3Z" fill="#5C5656"/>
<path d="M814.861 274.687H739.487V275.534H814.861V274.687Z" fill="#5C5656"/>
<path d="M806.392 150.193H623.462V151.04H806.392V150.193Z" fill="#E6E6E6"/>
<path d="M814.861 288.238H739.487V289.085H814.861V288.238Z" fill="#5C5656"/>
<path d="M814.861 295.013H739.487V295.86H814.861V295.013Z" fill="#5C5656"/>
<path d="M756.428 37.3588H670.886C669.554 37.3588 668.429 36.5409 668.018 35.2738C667.608 34.0076 668.039 32.6843 669.117 31.9028L712.346 0.575765C713.416 -0.197525 714.848 -0.192565 715.909 0.594785L758.221 31.9218C759.286 32.7091 759.705 34.0308 759.291 35.2887C758.876 36.5458 757.752 37.3588 756.428 37.3588V37.3588Z" fill="#CCCCCC"/>
<path d="M645.481 284.003H630.237V285.697H645.481V284.003Z" fill="#E6E6E6"/>
<path d="M152.977 350.479C153.047 351.069 153.067 351.619 153.027 352.159H123.337C123.067 351.619 122.837 351.059 122.637 350.479C119.007 340.049 124.977 322.689 117.407 296.949C111.787 277.849 101.297 262.909 96.4068 255.949C90.3968 247.389 83.5868 239.489 75.6968 226.869C73.9869 224.139 72.2269 221.179 70.4068 217.949C69.7969 216.869 62.7668 204.339 63.4069 203.949C63.7068 203.769 65.5668 206.299 66.1968 207.149C71.7568 214.669 74.9869 217.959 79.6169 223.369C82.4269 226.649 85.7469 230.699 90.4068 236.949C102.357 252.959 108.327 260.959 110.407 266.949C110.957 268.549 113.887 277.209 119.407 287.949C122.227 293.429 123.637 296.169 124.407 295.949C126.587 295.319 123.647 272.629 114.407 249.949C112.827 246.089 111.647 243.619 109.407 238.949C105.767 231.329 85.4969 188.979 70.5968 163.629C68.7268 160.439 66.9369 157.529 65.2869 154.979C64.9668 154.499 64.6568 154.029 64.3569 153.579C62.2768 150.479 60.4369 148.029 58.9069 146.449C58.0969 145.609 56.0369 143.229 51.9069 138.449C50.2668 136.549 49.0668 135.139 48.2568 134.109C48.1368 133.959 48.0269 133.809 47.9369 133.679C46.9568 132.399 46.6769 131.779 46.9069 131.449C47.2369 130.979 48.5068 131.249 49.8968 131.739C50.0469 131.789 50.2068 131.849 50.3569 131.909C51.8669 132.469 53.3968 133.199 53.9069 133.449C58.5868 135.699 63.1568 139.729 67.3868 144.519C68.9568 146.289 70.4668 148.159 71.9269 150.079C76.6268 156.279 80.7269 163.029 83.8268 168.579C87.6268 175.419 89.9068 180.449 89.9068 180.449C100.517 203.879 112.287 230.679 112.907 230.449C113.587 230.199 100.537 196.839 96.7369 178.719C95.4669 172.649 95.2369 168.289 96.9068 167.449C96.9668 167.419 97.0269 167.389 97.0969 167.369C97.3569 167.279 97.5968 167.289 97.7268 167.299C97.7268 167.299 99.2768 167.099 100.907 167.449C102.937 167.889 105.247 173.539 107.497 181.469C113.347 201.909 118.907 237.449 118.907 237.449C124.467 272.999 132.907 301.769 134.907 301.449C136.017 301.269 134.427 292.339 135.907 277.449C136.947 267.009 138.127 267.329 141.907 248.449C147.907 218.499 150.907 203.529 150.907 203.449C150.877 202.819 150.797 201.549 150.987 200.229C151.187 198.799 151.697 197.299 152.907 196.449C154.747 195.149 157.707 195.709 158.907 196.449C159.867 197.049 160.357 198.149 160.467 199.729C161.127 209.669 146.847 238.489 141.907 277.449C139.447 296.859 138.097 307.449 141.907 321.449C145.677 335.329 152.247 344.169 152.977 350.479V350.479Z" fill="#5C5656"/>
<path d="M193.407 99.9491C185.203 98.4564 175.014 103.948 174.407 109.949C173.907 114.889 179.979 119.399 179.407 119.949C178.872 120.463 175.11 115.042 170.407 114.949C163.301 114.808 154.772 126.843 157.407 133.949C159.522 139.653 168.586 141.519 168.407 141.949C168.238 142.355 161.332 137.928 154.407 138.949C144.492 140.411 134.998 152.973 137.407 160.949C140.098 169.861 157.523 172.62 157.407 172.949C157.285 173.297 139.87 164.381 133.407 169.949C129.072 173.684 129.694 182.39 132.407 187.949C138.07 199.553 155.737 203.665 164.407 197.949C171.148 193.505 166.602 186.974 173.407 172.949C181.763 155.726 196.297 149.75 196.407 136.949C196.417 135.785 196.449 132.037 194.407 130.949C191.145 129.212 184.85 135.463 184.407 134.949C183.927 134.393 192.353 128.305 197.407 117.949C198.996 114.692 202.613 107.281 199.407 102.949C197.775 100.744 195.048 100.248 193.407 99.9491Z" fill="#637E69"/>
<path d="M147.407 80.9491C139.203 79.4564 129.014 84.9478 128.407 90.9491C127.907 95.8891 133.979 100.399 133.407 100.949C132.872 101.463 129.11 96.0424 124.407 95.9491C117.301 95.8079 108.772 107.843 111.407 114.949C113.522 120.653 122.586 122.519 122.407 122.949C122.238 123.355 115.332 118.928 108.407 119.949C98.4921 121.411 88.998 133.973 91.4068 141.949C94.0984 150.861 111.523 153.62 111.407 153.949C111.285 154.297 93.87 145.381 87.4068 150.949C83.0719 154.684 83.6936 163.39 86.4068 168.949C92.0699 180.553 109.737 184.665 118.407 178.949C125.148 174.505 120.602 167.974 127.407 153.949C135.763 136.726 150.297 130.75 150.407 117.949C150.417 116.785 150.449 113.037 148.407 111.949C145.145 110.212 138.85 116.463 138.407 115.949C137.927 115.393 146.353 109.305 151.407 98.9491C152.996 95.6916 156.613 88.2806 153.407 83.9491C151.775 81.7437 149.048 81.2477 147.407 80.9491Z" fill="#637E69"/>
<path d="M91.705 58.7449C99.4809 61.7557 105.303 71.7594 102.687 77.1945C100.534 81.6685 93.0005 82.3447 93.2015 83.1121C93.3895 83.8294 99.4283 81.1713 103.488 83.5474C109.622 87.1377 110.612 101.855 104.654 106.54C99.8713 110.3 91.1668 107.158 91.0953 107.619C91.0278 108.053 99.2291 107.884 104.602 112.37C112.294 118.794 113.831 134.466 107.612 140.01C100.664 146.205 84.3625 139.46 84.2895 139.801C84.2124 140.161 103.72 141.65 106.324 149.774C108.071 155.223 102.995 162.323 97.7782 165.647C86.8895 172.586 69.6752 166.868 65.2655 157.467C61.8368 150.156 69.124 146.96 70.644 131.446C72.5106 112.394 63.236 99.7089 69.8264 88.7338C70.4257 87.7357 72.3553 84.5223 74.6651 84.661C78.3538 84.8826 80.4581 93.5009 81.1049 93.294C81.8046 93.0702 77.7969 83.4788 78.8946 72.0075C79.2399 68.3994 80.0255 60.1906 85.0214 58.1705C87.5649 57.142 90.1491 58.1426 91.705 58.745L91.705 58.7449Z" fill="#637E69"/>
<path d="M3.39805 64.1843C-1.50471 70.929 -0.975584 82.4918 4.16875 85.6413C8.40339 88.2339 15.1008 84.7189 15.3478 85.4728C15.5787 86.1774 9.06308 87.2168 6.93935 91.414C3.73034 97.756 10.8761 110.661 18.4217 111.368C24.4789 111.935 30.0909 104.577 30.4008 104.926C30.693 105.254 23.7091 109.557 21.626 116.239C18.6435 125.807 25.8457 139.81 34.0769 141.099C43.2742 142.538 53.3173 128.035 53.5633 128.281C53.8234 128.542 38.2374 140.367 40.4517 148.606C41.9369 154.132 50.0511 157.347 56.2372 157.313C69.1488 157.243 80.5159 143.107 79.1257 132.816C78.0448 124.814 70.1887 126.078 60.5022 113.864C48.6068 98.8651 49.5256 83.1783 38.0385 77.5273C36.9939 77.0134 33.6306 75.3588 31.7648 76.7273C28.785 78.9129 31.6879 87.296 31.0322 87.4727C30.3229 87.6639 28.492 77.4313 21.3519 68.3863C19.1061 65.5413 13.9967 59.0687 8.70333 60.0789C6.00833 60.5932 4.37899 62.8348 3.39804 64.1843L3.39805 64.1843Z" fill="#637E69"/>
<path d="M10.398 138.184C5.49529 144.929 6.02442 156.492 11.1687 159.641C15.4034 162.234 22.1008 158.719 22.3478 159.473C22.5787 160.177 16.0631 161.217 13.9393 165.414C10.7303 171.756 17.8761 184.661 25.4217 185.368C31.4789 185.935 37.0909 178.577 37.4008 178.926C37.693 179.254 30.7091 183.557 28.626 190.239C25.6435 199.807 32.8457 213.81 41.0769 215.099C50.2742 216.538 60.3173 202.035 60.5633 202.281C60.8234 202.542 45.2374 214.367 47.4517 222.606C48.9369 228.132 57.0511 231.347 63.2372 231.313C76.1488 231.243 87.5159 217.107 86.1257 206.816C85.0448 198.814 77.1887 200.078 67.5022 187.864C55.6068 172.865 56.5256 157.178 45.0385 151.527C43.9939 151.013 40.6306 149.359 38.7648 150.727C35.785 152.913 38.6879 161.296 38.0322 161.473C37.3229 161.664 35.492 151.431 28.3519 142.386C26.1061 139.541 20.9967 133.069 15.7033 134.079C13.0083 134.593 11.379 136.835 10.398 138.184H10.398Z" fill="#637E69"/>
<path d="M386.977 350.769C387.047 351.359 387.067 351.909 387.027 352.449H357.337C357.067 351.909 356.837 351.349 356.637 350.769C353.007 340.339 358.977 322.979 351.407 297.239C345.787 278.139 335.297 263.199 330.407 256.239C324.397 247.679 317.587 239.779 309.697 227.159C307.987 224.429 306.227 221.469 304.407 218.239C303.797 217.159 296.767 204.629 297.407 204.239C297.707 204.059 299.567 206.589 300.197 207.439C305.757 214.959 308.987 218.249 313.617 223.659C316.427 226.939 319.747 230.989 324.407 237.239C336.357 253.249 342.327 261.249 344.407 267.239C344.957 268.839 347.887 277.499 353.407 288.239C356.227 293.719 357.637 296.459 358.407 296.239C360.587 295.609 357.647 272.919 348.407 250.239C346.827 246.379 345.647 243.909 343.407 239.239C339.767 231.619 319.497 189.269 304.597 163.919C302.727 160.729 300.937 157.819 299.287 155.269C298.967 154.789 298.657 154.319 298.357 153.869C296.277 150.769 294.437 148.319 292.907 146.739C292.097 145.899 290.037 143.519 285.907 138.739C284.267 136.839 283.067 135.429 282.257 134.399C282.137 134.249 282.027 134.099 281.937 133.969C280.957 132.689 280.677 132.069 280.907 131.739C281.237 131.269 282.507 131.539 283.897 132.029C284.047 132.079 284.207 132.139 284.357 132.199C285.867 132.759 287.397 133.489 287.907 133.739C292.587 135.989 297.157 140.019 301.387 144.809C302.957 146.579 304.467 148.449 305.927 150.369C310.627 156.569 314.727 163.319 317.827 168.869C321.627 175.709 323.907 180.739 323.907 180.739C334.517 204.169 346.287 230.969 346.907 230.739C347.587 230.489 334.537 197.129 330.737 179.009C329.467 172.939 329.237 168.579 330.907 167.739C330.967 167.709 331.027 167.679 331.097 167.659C331.357 167.569 331.597 167.579 331.727 167.589C331.727 167.589 333.277 167.389 334.907 167.739C336.937 168.179 339.247 173.829 341.497 181.759C347.347 202.199 352.907 237.739 352.907 237.739C358.467 273.289 366.907 302.059 368.907 301.739C370.017 301.559 368.427 292.629 369.907 277.739C370.947 267.299 372.127 267.619 375.907 248.739C381.907 218.789 384.907 203.819 384.907 203.739C384.877 203.109 384.797 201.839 384.987 200.519C385.187 199.089 385.697 197.589 386.907 196.739C388.747 195.439 391.707 195.999 392.907 196.739C393.867 197.339 394.357 198.439 394.467 200.019C395.127 209.959 380.847 238.779 375.907 277.739C373.447 297.149 372.097 307.739 375.907 321.739C379.677 335.619 386.247 344.459 386.977 350.769V350.769Z" fill="#5C5656"/>
<path d="M427.407 100.239C419.203 98.7465 409.014 104.238 408.407 110.239C407.907 115.179 413.979 119.69 413.407 120.239C412.872 120.753 409.11 115.332 404.407 115.239C397.301 115.098 388.772 127.133 391.407 134.239C393.522 139.943 402.586 141.809 402.407 142.239C402.238 142.645 395.332 138.218 388.407 139.239C378.492 140.701 368.998 153.264 371.407 161.239C374.098 170.151 391.523 172.91 391.407 173.239C391.285 173.587 373.87 164.671 367.407 170.239C363.072 173.974 363.694 182.68 366.407 188.239C372.07 199.843 389.737 203.955 398.407 198.239C405.148 193.795 400.602 187.264 407.407 173.239C415.763 156.016 430.297 150.04 430.407 137.239C430.417 136.075 430.449 132.327 428.407 131.239C425.145 129.502 418.85 135.753 418.407 135.239C417.927 134.683 426.353 128.595 431.407 118.239C432.996 114.982 436.613 107.571 433.407 103.239C431.775 101.034 429.048 100.538 427.407 100.239V100.239Z" fill="#637E69"/>
<path d="M381.407 81.2391C373.203 79.7465 363.014 85.2378 362.407 91.2391C361.907 96.1792 367.979 100.69 367.407 101.239C366.872 101.753 363.11 96.3325 358.407 96.2391C351.301 96.098 342.772 108.133 345.407 115.239C347.522 120.943 356.586 122.809 356.407 123.239C356.238 123.645 349.332 119.218 342.407 120.239C332.492 121.701 322.998 134.264 325.407 142.239C328.098 151.151 345.523 153.91 345.407 154.239C345.285 154.587 327.87 145.671 321.407 151.239C317.072 154.974 317.694 163.68 320.407 169.239C326.07 180.843 343.737 184.955 352.407 179.239C359.148 174.795 354.602 168.264 361.407 154.239C369.763 137.016 384.297 131.04 384.407 118.239C384.417 117.075 384.449 113.327 382.407 112.239C379.145 110.502 372.85 116.753 372.407 116.239C371.927 115.683 380.353 109.595 385.407 99.2391C386.996 95.9817 390.613 88.5706 387.407 84.2391C385.775 82.0338 383.048 81.5378 381.407 81.2391V81.2391Z" fill="#637E69"/>
<path d="M325.705 59.035C333.481 62.0457 339.303 72.0494 336.687 77.4845C334.534 81.9585 327 82.6347 327.202 83.4022C327.389 84.1195 333.428 81.4614 337.488 83.8374C343.622 87.4277 344.612 102.146 338.654 106.83C333.871 110.59 325.167 107.448 325.095 107.909C325.028 108.343 333.229 108.174 338.602 112.66C346.294 119.084 347.831 134.756 341.612 140.3C334.664 146.495 318.362 139.75 318.29 140.091C318.212 140.451 337.72 141.94 340.324 150.064C342.071 155.513 336.995 162.613 331.778 165.937C320.889 172.876 303.675 167.158 299.266 157.757C295.837 150.446 303.124 147.251 304.644 131.736C306.511 112.684 297.236 99.9989 303.826 89.0238C304.426 88.0258 306.355 84.8123 308.665 84.9511C312.354 85.1727 314.458 93.7909 315.105 93.5841C315.805 93.3603 311.797 83.7688 312.895 72.2976C313.24 68.6895 314.025 60.4807 319.021 58.4606C321.565 57.432 324.149 58.4326 325.705 59.035V59.035Z" fill="#637E69"/>
<path d="M237.398 64.4743C232.495 71.2191 233.024 82.7818 238.169 85.9314C242.403 88.524 249.101 85.0089 249.348 85.7629C249.579 86.4675 243.063 87.5069 240.939 91.704C237.73 98.0461 244.876 110.951 252.422 111.658C258.479 112.225 264.091 104.867 264.401 105.216C264.693 105.544 257.709 109.847 255.626 116.529C252.643 126.097 259.846 140.1 268.077 141.389C277.274 142.828 287.317 128.325 287.563 128.571C287.823 128.832 272.237 140.657 274.452 148.896C275.937 154.422 284.051 157.637 290.237 157.603C303.149 157.533 314.516 143.397 313.126 133.106C312.045 125.104 304.189 126.368 294.502 114.154C282.607 99.1551 283.526 83.4683 272.039 77.8173C270.994 77.3035 267.631 75.6489 265.765 77.0174C262.785 79.2029 265.688 87.586 265.032 87.7628C264.323 87.9539 262.492 77.7214 255.352 68.6763C253.106 65.8313 247.997 59.3587 242.703 60.369C240.008 60.8833 238.379 63.1248 237.398 64.4743L237.398 64.4743Z" fill="#637E69"/>
<path d="M244.398 138.474C239.495 145.219 240.024 156.782 245.169 159.931C249.403 162.524 256.101 159.009 256.348 159.763C256.579 160.467 250.063 161.507 247.939 165.704C244.73 172.046 251.876 184.951 259.422 185.658C265.479 186.225 271.091 178.867 271.401 179.216C271.693 179.544 264.709 183.847 262.626 190.529C259.643 200.097 266.846 214.1 275.077 215.389C284.274 216.828 294.317 202.325 294.563 202.571C294.823 202.832 279.237 214.657 281.452 222.896C282.937 228.422 291.051 231.637 297.237 231.603C310.149 231.533 321.516 217.397 320.126 207.106C319.045 199.104 311.189 200.368 301.502 188.154C289.607 173.155 290.526 157.468 279.039 151.817C277.994 151.303 274.631 149.649 272.765 151.017C269.785 153.203 272.688 161.586 272.032 161.763C271.323 161.954 269.492 151.721 262.352 142.676C260.106 139.831 254.997 133.359 249.703 134.369C247.008 134.883 245.379 137.125 244.398 138.474H244.398Z" fill="#637E69"/>
<path d="M814.837 350.769C814.767 351.359 814.747 351.909 814.787 352.449H844.477C844.747 351.909 844.977 351.349 845.177 350.769C848.807 340.339 842.837 322.979 850.407 297.239C856.027 278.139 866.517 263.199 871.407 256.239C877.417 247.679 884.227 239.779 892.117 227.159C893.827 224.429 895.587 221.469 897.407 218.239C898.017 217.159 905.047 204.629 904.407 204.239C904.107 204.059 902.247 206.589 901.617 207.439C896.057 214.959 892.827 218.249 888.197 223.659C885.387 226.939 882.067 230.989 877.407 237.239C865.457 253.249 859.487 261.249 857.407 267.239C856.857 268.839 853.927 277.499 848.407 288.239C845.587 293.719 844.177 296.459 843.407 296.239C841.227 295.609 844.167 272.919 853.407 250.239C854.987 246.379 856.167 243.909 858.407 239.239C862.047 231.619 882.317 189.269 897.217 163.919C899.087 160.729 900.877 157.819 902.527 155.269C902.847 154.789 903.157 154.319 903.457 153.869C905.537 150.769 907.377 148.319 908.907 146.739C909.717 145.899 911.777 143.519 915.907 138.739C917.547 136.839 918.747 135.429 919.557 134.399C919.677 134.249 919.787 134.099 919.877 133.969C920.857 132.689 921.137 132.069 920.907 131.739C920.577 131.269 919.307 131.539 917.917 132.029C917.767 132.079 917.607 132.139 917.457 132.199C915.947 132.759 914.417 133.489 913.907 133.739C909.227 135.989 904.657 140.019 900.427 144.809C898.857 146.579 897.347 148.449 895.887 150.369C891.187 156.569 887.087 163.319 883.987 168.869C880.187 175.709 877.907 180.739 877.907 180.739C867.297 204.169 855.527 230.969 854.907 230.739C854.227 230.489 867.277 197.129 871.077 179.009C872.347 172.939 872.577 168.579 870.907 167.739C870.847 167.709 870.787 167.679 870.717 167.659C870.457 167.569 870.217 167.579 870.087 167.589C870.087 167.589 868.537 167.389 866.907 167.739C864.877 168.179 862.567 173.829 860.317 181.759C854.467 202.199 848.907 237.739 848.907 237.739C843.347 273.289 834.907 302.059 832.907 301.739C831.797 301.559 833.387 292.629 831.907 277.739C830.867 267.299 829.687 267.619 825.907 248.739C819.907 218.789 816.907 203.819 816.907 203.739C816.937 203.109 817.017 201.839 816.827 200.519C816.627 199.089 816.117 197.589 814.907 196.739C813.067 195.439 810.107 195.999 808.907 196.739C807.947 197.339 807.457 198.439 807.347 200.019C806.687 209.959 820.967 238.779 825.907 277.739C828.367 297.149 829.717 307.739 825.907 321.739C822.137 335.619 815.567 344.459 814.837 350.769V350.769Z" fill="#5C5656"/>
<path d="M774.407 100.239C782.611 98.7465 792.8 104.238 793.407 110.239C793.907 115.179 787.835 119.69 788.407 120.239C788.942 120.753 792.704 115.332 797.407 115.239C804.513 115.098 813.042 127.133 810.407 134.239C808.291 139.943 799.227 141.809 799.407 142.239C799.576 142.645 806.482 138.218 813.407 139.239C823.322 140.701 832.816 153.264 830.407 161.239C827.715 170.151 810.291 172.91 810.407 173.239C810.529 173.587 827.944 164.671 834.407 170.239C838.742 173.974 838.12 182.68 835.407 188.239C829.744 199.843 812.077 203.955 803.407 198.239C796.665 193.795 801.212 187.264 794.407 173.239C786.05 156.016 771.517 150.04 771.407 137.239C771.397 136.075 771.365 132.327 773.407 131.239C776.668 129.502 782.963 135.753 783.407 135.239C783.887 134.683 775.461 128.595 770.407 118.239C768.817 114.982 765.201 107.571 768.407 103.239C770.039 101.034 772.765 100.538 774.407 100.239V100.239Z" fill="#637E69"/>
<path d="M820.407 81.2391C828.611 79.7465 838.8 85.2378 839.407 91.2391C839.907 96.1792 833.835 100.69 834.407 101.239C834.942 101.753 838.704 96.3325 843.407 96.2391C850.513 96.098 859.042 108.133 856.407 115.239C854.291 120.943 845.227 122.809 845.407 123.239C845.576 123.645 852.482 119.218 859.407 120.239C869.322 121.701 878.816 134.264 876.407 142.239C873.715 151.151 856.291 153.91 856.407 154.239C856.529 154.587 873.944 145.671 880.407 151.239C884.742 154.974 884.12 163.68 881.407 169.239C875.744 180.843 858.077 184.955 849.407 179.239C842.665 174.795 847.212 168.264 840.407 154.239C832.05 137.016 817.517 131.04 817.407 118.239C817.397 117.075 817.365 113.327 819.407 112.239C822.668 110.502 828.963 116.753 829.407 116.239C829.887 115.683 821.461 109.595 816.407 99.2391C814.817 95.9817 811.201 88.5706 814.407 84.2391C816.039 82.0338 818.765 81.5378 820.407 81.2391V81.2391Z" fill="#637E69"/>
<path d="M876.109 59.035C868.333 62.0457 862.51 72.0494 865.126 77.4845C867.28 81.9585 874.813 82.6347 874.612 83.4022C874.424 84.1195 868.385 81.4614 864.326 83.8374C858.191 87.4277 857.202 102.146 863.16 106.83C867.942 110.59 876.647 107.448 876.718 107.909C876.786 108.343 868.585 108.174 863.212 112.66C855.52 119.084 853.982 134.756 860.201 140.3C867.15 146.495 883.451 139.75 883.524 140.091C883.601 140.451 864.094 141.94 861.489 150.064C859.742 155.513 864.818 162.613 870.035 165.937C880.924 172.876 898.138 167.158 902.548 157.757C905.977 150.446 898.69 147.251 897.17 131.736C895.303 112.684 904.578 99.9989 897.987 89.0238C897.388 88.0258 895.458 84.8123 893.149 84.9511C889.46 85.1727 887.356 93.7909 886.709 93.5841C886.009 93.3603 890.017 83.7688 888.919 72.2976C888.574 68.6895 887.788 60.4807 882.792 58.4606C880.249 57.432 877.665 58.4326 876.109 59.035V59.035Z" fill="#637E69"/>
<path d="M964.416 64.4743C969.318 71.2191 968.789 82.7818 963.645 85.9314C959.41 88.524 952.713 85.0089 952.466 85.7629C952.235 86.4675 958.751 87.5069 960.874 91.704C964.083 98.0461 956.938 110.951 949.392 111.658C943.335 112.225 937.723 104.867 937.413 105.216C937.121 105.544 944.105 109.847 946.188 116.529C949.17 126.097 941.968 140.1 933.737 141.389C924.54 142.828 914.496 128.325 914.25 128.571C913.99 128.832 929.576 140.657 927.362 148.896C925.877 154.422 917.763 157.637 911.576 157.603C898.665 157.533 887.298 143.397 888.688 133.106C889.769 125.104 897.625 126.368 907.311 114.154C919.207 99.1551 918.288 83.4683 929.775 77.8173C930.82 77.3035 934.183 75.6489 936.049 77.0174C939.029 79.2029 936.126 87.586 936.781 87.7628C937.491 87.9539 939.322 77.7214 946.462 68.6763C948.708 65.8313 953.817 59.3587 959.11 60.369C961.805 60.8833 963.435 63.1248 964.416 64.4743L964.416 64.4743Z" fill="#637E69"/>
<path d="M957.416 138.474C962.318 145.219 961.789 156.782 956.645 159.931C952.41 162.524 945.713 159.009 945.466 159.763C945.235 160.467 951.751 161.507 953.874 165.704C957.083 172.046 949.938 184.951 942.392 185.658C936.335 186.225 930.723 178.867 930.413 179.216C930.121 179.544 937.105 183.847 939.188 190.529C942.17 200.097 934.968 214.1 926.737 215.389C917.54 216.828 907.496 202.325 907.25 202.571C906.99 202.832 922.576 214.657 920.362 222.896C918.877 228.422 910.763 231.637 904.576 231.603C891.665 231.533 880.298 217.397 881.688 207.106C882.769 199.104 890.625 200.368 900.311 188.154C912.207 173.155 911.288 157.468 922.775 151.817C923.82 151.303 927.183 149.649 929.049 151.017C932.029 153.203 929.126 161.586 929.781 161.763C930.491 161.954 932.322 151.721 939.462 142.676C941.708 139.831 946.817 133.359 952.11 134.369C954.805 134.883 956.435 137.125 957.416 138.474H957.416Z" fill="#637E69"/>
<path d="M847.357 353.319C847.357 353.789 846.987 354.159 846.517 354.159H73.3168V352.479H846.517C846.987 352.479 847.357 352.859 847.357 353.319V353.319Z" fill="#E6E6E6"/>
</g>
<defs>
<clipPath id="clip0_1_2">
<rect width="967.814" height="354.159" fill="white"/>
</clipPath>
</defs>
</svg>
