<svg width="729" height="904" viewBox="0 0 729 904" fill="none" xmlns="http://www.w3.org/2000/svg">
<circle cx="365" cy="366" r="364" fill="white"/>
<path d="M320.971 0.684928C237.62 13.5256 167.784 47.5421 111.691 102.284C56.9492 155.899 20.68 223.932 5.13604 302.103C-1.17165 333.866 -0.495826 413.163 6.48769 445.152C45.4602 625.597 200.224 749.048 378.416 741.839C432.257 739.586 477.537 728.097 525.971 703.993C627.12 653.982 698.532 560.267 723.312 445.152C730.295 413.163 730.971 333.866 724.664 302.103C697.856 167.388 606.169 60.3827 481.367 18.0311C441.493 4.28932 420.543 0.910202 371.658 0.234378C347.554 -0.216172 324.801 0.00910325 320.971 0.684928ZM420.092 25.0146C544.218 44.3882 651.9 137.877 691.098 260.427C730.971 385.229 701.01 519.042 612.477 612.756C563.367 664.57 498.262 700.614 428.653 714.806C413.784 717.735 398.015 718.861 364.9 718.861C331.784 718.861 316.015 717.735 301.147 714.806C166.207 687.548 58.5262 581.443 29.4657 446.729C1.9822 320.125 43.8833 191.943 140.977 105.212C216.218 38.0805 317.367 9.02009 420.092 25.0146Z" fill="#3F008E"/>
<path d="M362.647 41.9104C357.24 47.317 356.79 57.0038 361.746 63.9874C366.251 70.5203 382.697 70.9709 388.103 64.8885C393.735 58.5808 393.059 45.2896 386.977 41.0093C379.993 36.0533 368.054 36.5038 362.647 41.9104ZM380.669 47.5423C385.175 52.9489 381.57 62.1852 375.037 62.1852C368.729 62.1852 365.801 55.4269 369.405 48.6687C372.334 43.2621 376.839 42.8115 380.669 47.5423Z" fill="#3F008E"/>
<path d="M322.999 44.6136C323.675 47.5422 324.35 54.5257 324.35 60.3829C324.35 70.7455 324.576 71.196 330.883 71.196C342.372 71.196 351.383 68.4927 351.383 65.1136C351.383 62.6356 349.131 61.9598 343.048 62.6356L334.488 63.3114L333.812 51.3719C333.136 40.5587 332.686 39.6576 327.279 39.6576C322.548 39.6576 321.872 40.3334 322.999 44.6136Z" fill="#3F008E"/>
<path d="M406.801 46.1904C401.62 51.8223 401.62 63.3113 406.576 68.9432C409.955 72.7728 413.109 73.4486 422.12 72.9981C433.158 72.3223 433.609 72.097 434.284 65.3388C434.96 59.0311 434.284 58.13 428.202 57.2289C423.922 56.553 420.993 57.2289 420.317 59.2563C419.642 60.8333 420.543 62.1849 422.345 62.1849C424.147 62.1849 425.724 63.086 425.724 64.2124C425.724 68.0421 421.444 69.1684 416.713 66.6904C412.208 64.2124 411.081 58.8058 413.559 52.2728C415.136 48.2179 424.823 47.3168 426.175 51.1464C426.625 52.4981 429.554 53.1739 432.482 52.7234L438.114 52.0475L433.158 46.8662C426.625 40.5585 412.433 40.108 406.801 46.1904Z" fill="#3F008E"/>
<path d="M290.559 45.7399C278.845 50.0202 275.916 61.7344 284.026 72.0971C293.263 83.8114 313.087 76.152 313.087 60.8333C313.087 48.218 302.724 41.2344 290.559 45.7399ZM300.471 54.5257C307.23 61.0586 302.274 73.4487 293.938 70.5202C289.433 68.718 287.18 58.3553 290.559 54.3004C294.164 50.0202 296.191 50.0202 300.471 54.5257Z" fill="#3F008E"/>
<path d="M447.35 61.7345C442.845 78.4048 442.845 79.5312 448.026 80.8828C451.631 81.7839 452.757 79.5312 456.136 67.3663C459.515 54.9762 459.741 52.4982 457.037 50.696C451.856 47.5421 451.18 48.218 447.35 61.7345Z" fill="#3F008E"/>
<path d="M258.345 54.9762C254.515 55.8773 254.515 57.6795 258.345 68.2674C259.922 72.3224 257.218 71.8718 249.784 66.4652C243.026 61.7345 233.114 62.4103 234.916 67.3663C235.367 68.9433 237.62 75.4762 239.872 81.7839C243.927 93.2729 248.883 97.1026 251.361 90.5696C252.037 88.7674 251.361 85.163 250.01 82.4597C246.18 75.251 247.982 75.0257 257.444 81.5586C263.977 85.8389 266.68 86.74 270.059 84.7125C274.339 82.4597 274.339 82.2345 268.707 68.4927C265.554 60.6081 262.85 54.3004 262.85 54.0751C262.625 54.0751 260.598 54.3004 258.345 54.9762Z" fill="#3F008E"/>
<path d="M475.735 60.1575C465.823 63.7619 463.12 79.3059 471.004 87.1905C476.411 92.5971 492.18 92.5971 492.18 86.9652C492.18 84.4872 490.153 83.8114 484.746 84.2619C476.186 85.163 473.257 80.6575 477.087 72.0971C480.015 66.0147 487.449 64.8883 490.603 70.2949C491.729 72.3224 494.433 73.4487 496.46 73.2235C500.29 72.3224 500.065 71.8718 495.784 66.4652C490.603 59.9322 482.944 57.4542 475.735 60.1575Z" fill="#3F008E"/>
<path d="M215.543 73.674C212.389 75.4762 212.164 76.8278 214.191 80.6575C216.218 84.7124 215.993 86.0641 212.614 88.5421C207.207 92.5971 205.405 92.1465 203.828 86.9652C202.251 82.0091 200.9 81.5586 195.944 84.7124C193.015 86.5146 193.466 88.7674 199.323 99.5806C206.982 113.998 207.658 114.449 212.839 112.647C215.092 111.745 215.993 109.943 214.867 107.465C211.488 98.9047 211.488 96.4267 215.543 95.0751C218.246 93.9487 220.724 95.0751 223.427 98.2289C227.257 102.96 234.24 103.185 234.24 98.4542C234.24 96.652 222.301 74.5751 219.823 71.8718C219.823 71.6465 217.795 72.5476 215.543 73.674Z" fill="#3F008E"/>
<path d="M509.301 87.4156C502.993 92.5969 497.812 97.5529 497.812 98.454C497.812 100.707 504.57 102.96 507.274 101.383C510.653 99.3551 520.114 104.987 518.988 108.366C517.411 111.971 525.07 114.899 527.323 111.52C527.999 110.168 529.576 102.734 530.477 95.3002C531.603 85.1628 531.153 81.3332 528.9 79.9815C523.944 76.6024 521.241 77.7288 509.301 87.4156ZM521.691 95.3002C520.565 98.0035 519.438 98.2288 517.636 96.4266C515.834 94.6244 515.834 93.0474 518.312 90.1189C521.691 86.0639 523.944 89.2178 521.691 95.3002Z" fill="#3F008E"/>
<path d="M346.878 81.5586C263.301 88.0916 188.059 129.317 137.823 196.223C122.73 216.273 98.6251 265.158 92.3174 288.361C76.0976 347.383 77.4493 407.756 95.6965 462.498C111.466 509.581 131.966 541.795 168.686 578.064C208.109 616.811 245.054 637.762 298.444 651.504C321.422 657.586 326.378 658.037 364.9 658.037C403.422 658.037 408.378 657.586 431.356 651.504C484.746 637.762 521.691 616.811 561.114 578.064C597.834 541.795 618.334 509.581 634.103 462.498C645.817 427.581 649.422 400.998 648.07 360.674C646.268 311.114 637.708 278.223 615.856 235.647C580.263 166.712 522.142 117.603 448.252 94.174C418.515 84.7125 375.263 79.3059 346.878 81.5586ZM391.482 93.9487C455.911 100.932 511.103 127.289 556.609 172.795C638.834 255.02 660.911 382.526 611.576 489.306C597.834 519.267 580.037 543.822 553.23 570.18C516.059 606.674 480.241 627.174 430.905 640.465C410.631 646.097 405.449 646.548 364.9 646.548C324.35 646.548 319.169 646.097 298.894 640.465C249.559 627.174 213.741 606.674 176.57 570.18C120.251 514.987 92.3174 448.756 92.3174 370.811C92.3174 218.526 209.235 97.1026 361.07 91.696C365.801 91.696 379.317 92.5971 391.482 93.9487Z" fill="#3F008E"/>
<path d="M334.488 127.965C323.449 129.092 313.988 130.218 313.762 130.669C313.312 130.894 312.411 139.004 311.735 148.465L310.158 165.586L295.29 171.443C286.955 174.597 278.845 177.075 276.817 177.075C275.015 177.075 267.131 172.57 259.246 167.163L245.054 157.251L224.103 169.866L203.153 182.482L210.812 200.504C215.092 210.416 218.021 220.103 217.345 222.13C216.669 223.932 211.713 230.24 206.532 236.322L197.07 246.91L179.273 244.658C169.361 243.531 161.251 242.63 161.026 243.081C160.801 243.306 155.169 252.092 148.636 262.68C142.103 273.267 135.345 284.081 133.543 286.784C130.614 291.289 131.065 292.191 144.131 302.553L157.647 313.366L157.197 332.289C156.521 353.691 157.422 352.564 133.993 359.322L118.224 363.828L118.9 390.41C119.576 409.108 120.702 417.669 122.729 419.245C124.306 420.597 133.317 423.526 142.554 425.778L159.449 429.608L165.306 445.377C168.46 454.163 171.164 462.048 171.164 462.949C171.164 464.075 165.532 469.256 158.773 474.438C152.015 479.619 146.383 485.026 146.383 486.377C146.383 487.954 174.317 533.46 179.048 539.092C179.273 539.542 187.158 536.614 196.62 532.784L213.515 525.8L228.383 537.74C236.493 544.273 243.251 551.256 243.251 553.284C243.251 555.311 241.675 562.07 239.872 568.152C238.07 574.235 236.493 580.317 236.493 581.894C236.493 583.245 247.306 590.229 260.598 597.213L284.702 610.053L288.982 604.872C291.46 601.943 297.317 595.185 302.048 590.004L310.609 580.542L326.828 583.245L343.048 585.949L348.23 603.745C351.158 613.658 353.861 621.993 354.312 622.443C355.664 623.795 401.845 618.388 407.252 616.361C411.757 614.333 412.208 612.756 412.208 597.213C412.208 578.289 412.208 578.289 436.312 570.405L448.026 566.575L463.57 578.965L479.339 591.355L501.867 575.586L524.394 560.042L516.96 542.696L509.526 525.35L519.889 512.284L530.477 498.993L542.867 500.119C549.625 500.795 558.411 501.921 562.015 502.597C568.774 503.949 568.774 503.724 582.741 475.789L596.708 447.855L583.191 439.07L569.675 430.509L571.026 416.542C573.73 390.861 573.955 390.636 591.526 385.454C609.774 379.822 609.098 381.399 606.62 346.031L604.817 322.377L587.021 319.674C577.334 318.097 569.224 316.745 568.999 316.295C566.971 313.817 556.383 284.531 556.383 282.053C556.383 280.251 562.466 273.042 569.9 265.833L583.416 252.993L564.944 229.114C554.806 216.048 546.471 205.009 546.246 204.784C546.021 204.333 537.686 207.712 527.323 212.218L509.076 220.103L495.334 208.163L481.592 196.223L483.394 183.833C486.999 157.701 488.125 159.504 463.57 148.24L441.493 138.103L426.4 152.52L411.081 166.938L397.114 166.262L383.147 165.361L375.938 145.311C367.828 122.333 371.883 124.136 334.488 127.965ZM368.504 155.449L374.587 174.372L384.724 175.723C390.356 176.399 399.367 177.075 405.224 177.075C414.686 177.075 416.488 176.174 429.103 163.559L442.845 149.817L458.614 157.026C467.175 160.855 474.609 164.46 474.834 164.685C475.284 165.136 474.383 173.245 472.806 182.932L470.103 200.278L475.735 205.009C478.889 207.712 487.224 214.696 494.208 220.778L507.048 231.817L524.394 224.608L541.741 217.399L548.724 225.509C552.779 230.015 558.636 237.674 562.241 242.63L568.323 251.641L555.482 264.707L542.642 277.548L551.878 301.427C562.015 327.333 560.889 326.432 582.741 329.361C596.257 330.938 596.933 332.064 596.933 356.619V372.839L581.389 377.57L566.07 382.3L562.241 404.603C560.213 416.993 558.636 428.932 558.636 431.185C558.636 433.888 563.142 438.619 571.026 443.8L583.416 451.91L573.054 472.41C564.268 490.432 562.241 492.685 557.96 491.784C555.257 491.108 547.372 489.756 540.389 489.081L527.774 487.504L512.905 505.526L497.812 523.548L504.57 539.767C508.4 548.778 511.328 556.438 511.328 556.663C511.328 556.888 504.12 561.844 495.334 567.702L479.565 578.289L464.922 566.575L450.279 554.861L427.301 562.745C414.01 567.251 404.098 571.982 403.872 573.784C403.647 575.586 402.746 583.696 402.07 592.031C400.493 608.927 401.845 608.026 375.037 610.729L361.295 612.081L355.889 594.509L350.257 576.938L328.856 573.108L307.455 569.278L294.839 582.795L282.449 596.537L265.554 588.202C256.317 583.471 248.658 579.416 248.208 579.191C247.757 578.74 249.334 571.306 251.812 562.52L256.317 546.751L236.268 530.756C225.23 522.196 215.317 514.987 214.416 514.987C213.29 514.987 206.306 517.465 198.647 520.619C190.988 523.773 184.23 526.251 183.779 526.251C182.427 526.251 159.9 490.658 159.9 488.405C159.9 487.278 165.306 482.097 172.065 476.691L184.23 467.004L177.922 449.883C174.543 440.421 170.488 430.059 169.361 426.905C167.334 421.949 164.405 420.372 149.312 416.542L131.74 412.262L130.164 403.476C129.262 398.52 128.587 389.284 128.587 382.976L128.361 371.262L147.284 366.081L165.982 360.899L167.559 334.993L168.911 308.861L162.828 304.355C159.224 301.877 153.817 297.372 150.438 294.218L144.356 288.586L154.944 271.015L165.532 253.669L180.175 255.02C188.284 255.696 196.394 256.597 198.197 257.273C202.026 258.174 229.735 226.861 229.735 221.68C229.735 220.103 226.581 211.767 222.977 202.982C215.317 184.96 214.867 185.861 235.142 175.273L245.054 169.866L260.147 180.004C274.565 189.691 275.691 189.916 282.449 187.212C286.279 185.636 296.867 181.581 305.878 178.427L322.098 172.119V155.674V139.004L332.911 138.103C338.768 137.652 347.779 137.201 352.96 136.976L362.422 136.526L368.504 155.449Z" fill="#CC1800"/>
<path d="M343.499 196.223C332.685 200.053 327.729 206.136 323.224 220.778C314.889 248.262 323.449 294.218 336.74 294.218C338.543 294.218 342.598 288.586 345.977 281.828C353.185 266.284 359.718 261.553 370.982 263.355C382.696 265.383 390.131 271.691 394.411 282.954L398.015 292.641L403.872 284.982C411.757 274.394 414.46 266.509 414.46 253.218C414.46 231.592 400.268 212.669 375.037 200.954C359.493 193.52 353.861 192.619 343.499 196.223Z" fill="#660000"/>
<path d="M420.543 228.213C421.444 232.943 422.345 244.432 422.12 254.119C421.894 276.647 414.46 291.965 388.554 322.377C365.35 349.636 358.142 363.377 356.565 382.751C354.537 406.405 362.197 421.724 379.317 429.608C398.241 438.169 412.658 433.438 426.625 414.289C438.565 398.07 444.422 381.399 444.197 362.927C444.197 344.454 441.043 334.767 435.186 334.767C433.158 334.767 423.697 342.427 414.46 351.663C398.466 367.883 391.933 371.938 391.933 365.63C391.933 360.224 418.515 335.218 434.059 326.207C450.279 316.746 467.625 300.075 473.933 287.91C478.438 279.35 478.438 271.015 474.158 262.905C469.427 253.443 448.477 235.421 432.708 226.861L418.741 219.427L420.543 228.213Z" fill="#660000"/>
<path d="M280.197 248.938C260.372 257.949 227.933 291.064 224.103 306.157C221.4 316.52 231.763 330.487 256.317 349.185C268.257 358.421 290.334 375.993 305.202 388.383C320.07 400.998 332.46 410.685 332.911 410.46C333.136 410.009 328.631 401.223 322.999 390.861C309.032 365.855 293.488 330.487 289.433 314.943C285.603 300.3 285.153 275.295 288.306 258.174C289.658 251.641 290.334 246.009 289.883 245.559C289.658 245.108 285.153 246.685 280.197 248.938Z" fill="#660000"/>
<path d="M299.57 251.866C294.164 260.652 293.488 283.179 297.993 304.581C302.499 325.982 306.328 330.487 325.251 336.119C334.713 339.048 335.164 343.328 326.153 344.229C319.169 344.905 318.718 345.355 319.169 353.015C319.845 364.278 332.686 398.52 341.021 410.91C347.554 421.048 355.664 425.328 354.087 418.119C353.636 416.317 351.609 408.432 349.806 400.773C345.526 383.652 348.004 367.657 357.916 347.383L364.449 334.092L357.466 328.234C316.24 294.218 308.581 282.954 308.581 256.372C308.581 242.855 305.878 241.504 299.57 251.866Z" fill="#660000"/>
<path d="M362.647 275.971C347.779 296.921 349.581 314.943 366.927 321.476C379.092 326.207 391.707 308.185 387.427 292.416C385.4 284.531 373.46 269.438 369.18 269.438C368.279 269.438 365.35 272.366 362.647 275.971Z" fill="#660000"/>
<path d="M466.048 311.564L451.18 326.883L454.559 335.894C459.966 351.213 460.642 371.713 456.136 383.652C450.73 397.844 438.565 416.993 429.779 425.103L422.57 431.41L430.905 435.015C442.169 439.746 449.603 439.295 470.103 432.762C491.279 426.229 514.708 412.487 523.268 401.674C530.702 392.438 533.18 379.147 529.576 367.883C527.999 363.377 519.438 351.438 510.427 341.3C498.263 328.009 493.306 320.575 492.405 314.718C491.279 306.608 485.647 296.471 482.493 296.471C481.592 296.471 474.158 303.229 466.048 311.564Z" fill="#660000"/>
<path d="M224.779 369.685C206.982 390.41 200.674 408.207 207.207 420.372C209.911 425.328 220.724 429.383 231.312 429.383C237.394 429.383 242.801 432.762 261.499 448.756C296.191 478.042 298.218 474.888 282.674 414.965L272.087 374.19L257.669 363.377C249.784 357.52 242.576 352.789 241.449 352.789C240.323 352.789 232.889 360.449 224.779 369.685Z" fill="#660000"/>
<path d="M281.548 382.075C281.548 383.427 284.026 394.916 287.405 407.306C295.065 438.169 306.103 459.119 327.054 483.223C336.515 494.262 337.867 498.092 331.334 496.289C325.026 494.713 318.043 502.597 321.197 507.553C324.576 512.734 328.856 513.861 328.856 509.355C328.856 504.399 339.894 505.751 343.273 510.932C345.301 514.086 344.625 516.114 339.669 520.844L333.812 526.927L320.746 521.745C300.021 513.185 269.383 491.784 246.405 469.482C232.438 455.965 224.103 449.658 221.85 450.559C216.444 452.586 217.795 455.289 230.861 469.482C258.12 498.993 298.444 525.8 331.784 536.388C381.345 552.158 431.131 534.361 481.142 482.998C504.345 459.344 514.482 445.377 511.103 441.548C507.048 436.592 505.697 437.493 495.559 451.009C481.367 469.932 454.559 495.388 436.087 507.778C419.867 518.592 399.817 528.053 397.565 525.8C396.889 525.125 397.565 519.042 398.916 512.284L401.394 499.669L410.18 500.795C418.29 501.921 418.74 501.696 422.345 493.361C424.372 487.954 432.708 478.267 443.07 468.581C461.768 451.46 462.219 449.207 449.153 443.8C442.845 441.097 440.367 441.097 436.312 443.35C427.977 448.081 395.537 446.729 376.164 440.872C348.229 432.537 328.856 420.597 296.867 392.663C288.306 385.229 281.548 380.498 281.548 382.075ZM383.823 510.707C386.751 526.026 385.625 530.081 378.416 531.207C371.658 532.108 371.658 532.108 371.658 521.52C371.658 508.229 373.235 503.723 378.416 503.723C381.12 503.723 382.922 505.976 383.823 510.707Z" fill="#1A8E00"/>
<path d="M541.966 107.69L533.18 119.405L541.966 126.839C546.697 130.894 552.103 134.273 553.68 134.273C558.411 134.273 556.609 127.74 550.752 123.91L545.12 120.306L552.103 110.619C558.861 101.157 559.312 95.9761 553.455 95.9761C551.878 95.9761 546.697 101.157 541.966 107.69Z" fill="#3F008E"/>
<path d="M172.29 100.932C165.532 104.537 162.153 109.718 162.153 116.251C162.153 130.443 181.076 137.427 190.988 126.839C196.845 120.531 197.746 110.619 192.339 112.647C190.312 113.322 188.284 113.998 187.834 113.998C187.383 113.998 186.933 116.026 186.933 118.504C186.933 125.037 180.85 126.614 175.444 121.658C170.037 116.701 170.713 108.817 176.795 107.69C184.004 106.339 187.834 102.509 184.23 100.256C180.4 97.7784 177.697 97.7784 172.29 100.932Z" fill="#3F008E"/>
<path d="M136.246 132.02L127.46 141.031L138.499 152.295L149.537 163.559L159.224 154.097C170.037 143.284 169.136 137.427 157.872 145.311C148.411 152.07 144.356 149.141 152.015 141.031C159.675 133.147 155.394 129.092 147.284 136.751C139.625 143.96 137.598 140.13 144.806 132.471C150.213 126.839 150.889 123.009 146.383 123.009C145.708 123.009 140.977 127.064 136.246 132.02Z" fill="#3F008E"/>
<path d="M588.147 139.905C582.065 145.537 578.911 150.268 578.911 153.872C578.911 159.954 589.949 172.57 595.356 172.57C599.861 172.57 616.982 158.603 616.982 154.998C617.433 148.691 609.999 149.592 602.565 156.8C597.834 161.306 593.554 163.559 591.526 162.883C585.444 160.63 587.471 153.196 595.806 146.213C602.79 140.581 603.241 139.454 600.537 135.85C597.383 132.02 596.708 132.246 588.147 139.905Z" fill="#3F008E"/>
<path d="M108.537 161.756C102.229 169.866 100.202 174.146 102.004 175.273C103.356 176.174 106.284 175.273 108.537 173.471C111.916 170.092 113.043 170.542 121.378 177.075C129.713 183.833 135.12 184.509 135.12 178.652C135.12 177.075 131.29 172.795 126.784 168.965C119.576 162.883 118.675 161.306 121.378 158.377C124.081 154.773 123.18 150.042 119.576 150.042C118.449 150.042 113.493 155.449 108.537 161.756Z" fill="#3F008E"/>
<path d="M614.504 176.174C603.691 183.383 602.114 185.185 603.916 188.789C606.169 192.844 606.394 192.844 613.153 187.888L620.136 182.932L618.559 188.564C612.252 210.866 614.955 213.795 631.625 202.982C638.609 198.701 644.241 193.971 644.241 192.619C644.241 188.564 637.933 187.888 632.076 191.718C625.317 196.223 625.317 196.223 629.372 184.284C631.85 177.075 632.076 174.372 629.823 171.443C627.57 168.289 625.993 168.74 614.504 176.174Z" fill="#3F008E"/>
<path d="M79.0261 203.883C76.7734 207.712 77.8997 209.064 86.0096 213.569C91.4162 216.498 95.9217 220.553 96.3723 222.806C97.7239 229.113 90.5151 230.015 80.8283 224.608C76.0975 221.905 71.1415 220.328 69.7899 221.004C64.8338 223.932 67.9877 229.113 77.4492 233.844C90.2899 239.927 97.2734 238.35 102.455 227.762C105.609 220.553 105.834 218.976 102.905 214.696C101.103 211.993 95.4712 207.487 90.5151 204.558C81.5041 199.602 81.2789 199.602 79.0261 203.883Z" fill="#3F008E"/>
<path d="M638.609 213.119C632.526 216.949 626.444 220.328 625.092 220.778C623.741 221.229 624.416 223.256 626.444 225.509C629.823 229.114 630.949 228.888 642.889 222.13C649.872 218.075 655.504 214.696 655.504 214.245C655.504 211.767 652.576 206.361 651.224 206.586C650.548 206.586 644.916 209.515 638.609 213.119Z" fill="#3F008E"/>
<path d="M649.422 236.097C640.186 245.559 637.933 249.163 638.834 253.218C640.186 257.723 641.537 258.174 657.081 258.174C671.949 258.174 673.752 257.723 673.076 254.119C672.625 251.19 669.697 250.064 660.01 249.614L647.62 248.938L656.631 241.504C664.065 235.196 665.191 233.169 663.389 229.114C661.136 224.383 660.686 224.833 649.422 236.097Z" fill="#3F008E"/>
<path d="M59.202 245.108C58.0757 246.685 55.3724 252.317 53.3449 257.724C49.7405 266.735 49.7405 267.41 53.3449 268.762C55.5976 269.438 62.1306 271.916 67.9878 274.169C78.5757 278.224 78.8009 278.224 81.0537 273.943C83.0812 270.114 82.6306 268.987 77.6746 267.185C70.4658 264.482 70.2405 260.427 77.4493 260.427C83.0812 260.427 90.0647 255.245 90.0647 250.965C90.0647 249.388 87.1361 249.163 82.1801 249.839C75.8724 250.965 74.2954 250.289 73.1691 246.685C71.5922 241.729 62.5812 240.828 59.202 245.108ZM67.5372 255.471C67.5372 260.877 65.735 262.68 61.6801 261.103C59.4273 260.202 59.202 258.85 61.0042 255.696C63.7075 250.289 67.5372 250.064 67.5372 255.471Z" fill="#3F008E"/>
<path d="M660.686 272.366C655.504 273.943 650.548 275.746 649.872 276.647C647.394 278.899 653.702 303.454 656.405 302.553C657.757 302.103 658.658 297.597 658.208 292.191C657.306 280.251 663.164 278.899 665.416 290.839C666.543 296.02 667.894 298.048 669.922 297.372C672.4 296.471 672.625 294.443 671.048 289.037C668.57 280.026 668.345 280.702 672.175 280.702C673.977 280.702 676.004 284.081 676.68 288.586C678.257 296.02 680.96 298.724 683.438 294.669C684.114 293.542 683.213 287.91 681.636 281.603C678.482 269.213 676.23 268.086 660.686 272.366Z" fill="#3F008E"/>
<path d="M44.1085 284.306C42.081 289.487 42.3063 289.712 48.1634 291.965C56.2733 294.894 53.57 303.229 44.7843 303.229C39.8283 303.229 38.2513 304.355 38.2513 307.734C38.2513 312.24 46.8118 315.619 61.9052 317.196C67.3118 317.646 68.6634 316.971 68.6634 313.366C68.6634 310.438 66.8612 308.636 63.7074 308.185C58.5261 307.509 57.3997 304.355 59.8777 298.048C60.7788 295.344 62.581 295.119 67.7623 296.471C73.6195 298.273 74.2953 297.822 74.2953 293.092C74.2953 288.811 72.4931 287.46 63.7074 285.432C57.625 283.855 51.3173 282.278 49.2898 281.603C47.0371 281.152 45.0096 282.053 44.1085 284.306Z" fill="#3F008E"/>
<path d="M679.158 308.861C678.032 309.311 672.175 310.213 666.543 311.114C657.532 312.24 656.18 313.141 657.081 316.745C657.982 319.899 660.235 321.251 665.191 321.251H672.175L665.867 327.784C662.037 331.839 660.01 336.119 660.46 339.273L661.136 344.229L667.444 339.273C672.4 335.443 674.427 334.993 676.905 337.02C678.707 338.372 682.087 339.048 684.79 338.147C688.394 337.02 689.295 334.767 689.295 325.756C689.295 309.537 687.268 306.158 679.158 308.861ZM683.213 322.377C684.79 325.982 681.411 328.91 678.032 326.883C674.653 324.855 675.328 318.998 678.933 318.998C680.735 318.998 682.537 320.575 683.213 322.377Z" fill="#3F008E"/>
<path d="M34.8723 328.46C34.4217 330.037 33.7459 336.119 33.2953 341.976L32.6195 352.564L46.8118 354.141C54.6964 354.817 61.6799 354.817 62.3558 354.141C63.2569 353.24 64.6085 347.158 65.2843 340.399C66.1854 331.614 65.9602 328.009 63.9327 328.009C60.7788 328.009 58.5261 333.19 58.5261 340.85C58.5261 349.636 52.8942 345.806 52.2184 336.344C51.3173 325.756 48.1635 325.531 46.3613 335.894C44.3338 346.707 40.5041 345.806 40.5041 334.767C40.5041 326.207 36.8997 322.377 34.8723 328.46Z" fill="#3F008E"/>
<path d="M662.037 356.619C657.307 369.46 665.867 382.976 675.779 377.57C678.032 376.218 680.735 371.712 681.636 367.432C683.664 356.169 687.719 357.52 685.916 368.784C684.565 376.218 685.015 377.795 687.268 377.119C694.927 374.641 695.378 354.141 687.719 351.212C682.537 349.185 677.581 353.24 674.653 362.026C671.724 370.811 668.12 371.938 667.219 364.504C666.768 361.8 667.444 359.548 668.796 359.548C670.147 359.548 671.274 357.52 671.274 355.042C671.274 348.509 664.741 349.41 662.037 356.619Z" fill="#3F008E"/>
<path d="M31.4932 370.811C31.4932 374.416 33.0701 375.317 39.3778 375.317C49.2899 375.317 49.2899 377.344 39.3778 384.103C35.0976 387.031 31.4932 391.311 31.4932 393.564C31.4932 397.394 33.2954 397.844 47.2624 397.844C61.4547 397.844 63.0316 397.394 63.0316 393.564C63.0316 389.96 61.2294 389.059 54.6965 388.383L46.3613 387.707L54.6965 382.075C60.1031 378.471 63.0316 374.641 63.0316 371.262C63.0316 366.531 62.1305 366.306 47.2624 366.306C33.0701 366.306 31.4932 366.756 31.4932 370.811Z" fill="#3F008E"/>
<path d="M660.01 393.114C660.01 397.619 667.669 400.097 682.763 400.097C689.746 400.097 691.548 399.196 691.548 395.817C691.548 391.311 683.889 388.833 668.796 388.833C661.812 388.833 660.01 389.734 660.01 393.114Z" fill="#3F008E"/>
<path d="M682.537 416.092C682.537 420.372 681.636 420.597 670.147 419.245C658.658 417.668 657.757 417.894 657.757 422.174C657.757 426.905 663.164 429.383 673.977 429.383C678.708 429.383 680.059 430.509 680.735 435.465C682.087 446.278 686.592 443.8 688.169 431.185C688.845 424.652 690.197 417.443 690.647 415.19C691.548 412.487 690.647 411.361 687.268 411.361C683.889 411.361 682.537 412.712 682.537 416.092Z" fill="#3F008E"/>
<path d="M62.1305 433.888L63.4822 442.674L54.6965 444.251C42.9822 446.053 40.0536 448.081 41.8558 452.811C42.9822 455.74 45.0097 456.416 50.4163 455.289C67.9877 451.685 74.0701 449.432 73.169 446.729C72.7185 445.377 71.1415 439.745 69.7899 434.339C66.4108 421.498 60.1031 421.048 62.1305 433.888Z" fill="#3F008E"/>
<path d="M671.499 455.515C665.867 457.993 662.263 458.218 657.757 456.641C652.576 455.064 650.999 455.289 650.098 457.993C647.845 463.625 648.521 464.976 655.054 466.553C658.433 467.229 664.065 471.509 667.669 476.015C673.301 482.998 674.427 483.449 676.23 480.295C677.807 477.592 677.356 474.663 674.878 471.059C670.372 464.075 670.372 463.625 676.004 462.723C678.708 462.273 681.861 459.795 682.763 456.866C685.015 451.009 682.763 450.784 671.499 455.515Z" fill="#3F008E"/>
<path d="M62.5811 468.355C51.3174 478.493 49.9658 480.745 51.768 485.026C53.7954 489.756 55.3724 490.207 70.691 490.207C86.235 490.207 87.3614 489.982 86.235 485.701C85.5592 483.223 83.5317 481.196 81.9548 481.196C77.6746 481.196 73.1691 469.707 76.5482 467.679C77.8998 466.778 78.1251 464.3 77.224 461.372C75.4218 456.866 74.746 457.092 62.5811 468.355ZM70.691 477.817C71.5921 480.295 70.2405 481.196 65.735 481.196C59.8778 480.971 59.8778 480.971 63.9328 477.817C69.3394 473.762 69.1141 473.762 70.691 477.817Z" fill="#3F008E"/>
<path d="M86.2349 496.289C83.9821 496.965 84.2074 498.767 86.9107 503.949C90.9657 512.059 90.5151 513.185 78.8008 518.366C69.114 522.647 68.6635 523.322 72.0426 528.504C73.6195 531.207 76.0975 530.756 87.5865 525.125C95.2459 521.52 101.328 518.366 101.328 517.916C101.328 516.564 90.0646 494.712 89.3887 494.938C89.1635 494.938 87.5865 495.614 86.2349 496.289Z" fill="#3F008E"/>
<path d="M631.851 509.581C628.697 512.96 626.219 516.789 626.219 518.141C626.219 519.493 625.543 522.872 624.867 525.575C623.741 529.405 625.092 531.207 630.499 533.91C637.257 537.515 637.482 537.515 640.862 530.982C643.34 525.8 643.565 523.773 641.537 522.647C640.186 521.746 638.383 522.196 637.933 523.548C636.581 527.828 632.977 526.702 632.977 521.971C632.977 515.213 638.158 512.059 644.916 515.213C652.576 518.817 654.153 523.097 649.197 528.053C646.944 530.306 644.241 533.91 643.565 536.163C642.213 539.317 643.114 539.993 647.169 539.317C653.477 538.416 661.136 523.773 659.109 516.114C657.757 510.482 647.62 503.724 640.862 503.724C638.834 503.724 634.779 506.427 631.851 509.581Z" fill="#3F008E"/>
<path d="M101.103 531.432C99.0756 537.064 97.2734 538.866 92.9932 538.641C82.6305 538.641 81.7294 544.723 89.8393 557.564L97.2734 569.053L110.565 559.592C122.729 551.031 123.631 549.905 120.477 546.751C117.548 543.822 116.196 543.597 112.367 546.075C106.059 550.13 104.707 548.103 107.861 539.993C110.114 535.037 110.114 532.333 108.087 528.729C104.933 522.421 104.257 522.647 101.103 531.432ZM100.878 551.932C101.554 554.861 100.653 555.762 97.7239 555.086C95.2459 554.636 93.2184 552.608 92.7679 550.13C92.0921 547.202 92.9932 546.3 95.9217 546.976C98.3998 547.427 100.427 549.454 100.878 551.932Z" fill="#3F008E"/>
<path d="M609.323 547.877C599.411 558.465 602.79 569.729 618.334 578.064C622.839 580.542 624.642 580.542 626.894 578.289C628.922 576.037 627.57 573.784 619.46 566.8C609.999 558.691 609.548 557.789 613.153 554.185C616.532 550.806 617.433 551.031 626.669 557.339C636.356 563.872 636.807 564.097 639.285 559.817C641.763 555.987 640.861 554.861 631.4 548.778C618.559 540.443 616.307 540.443 609.323 547.877Z" fill="#3F008E"/>
<path d="M119.35 572.432C112.142 586.174 111.916 587.3 115.521 590.905C118.9 594.284 120.252 594.284 135.12 589.103C143.68 586.174 150.889 583.246 150.889 582.344C150.889 579.641 144.356 575.361 142.328 576.713C139.4 578.515 133.317 571.306 132.416 564.773C131.065 555.311 127.46 557.339 119.35 572.432ZM132.191 579.641C132.642 580.993 131.065 582.57 128.361 583.246C123.405 584.597 123.18 584.372 125.208 579.191C126.784 575.361 130.839 575.586 132.191 579.641Z" fill="#3F008E"/>
<path d="M587.246 576.713C586.57 578.515 587.471 581.218 589.273 582.57C591.076 584.147 592.427 586.85 592.427 588.427C592.427 592.257 593.103 592.031 584.092 589.553C578.46 587.976 576.208 588.202 573.279 591.581C569.9 595.185 569.9 595.636 573.279 596.987C575.306 597.663 578.911 598.339 581.389 598.339C584.317 598.339 585.669 599.916 585.669 603.746C585.669 615.009 597.834 613.658 607.07 601.493L613.153 593.383L603.466 583.471C593.328 573.108 589.273 571.306 587.246 576.713ZM600.537 600.141C596.032 604.872 591.751 601.718 594.905 595.861C596.708 592.031 597.834 591.806 600.537 594.059C603.466 596.537 603.466 597.213 600.537 600.141Z" fill="#3F008E"/>
<path d="M146.609 599.465C136.696 610.278 136.021 611.855 140.076 615.91C142.103 617.938 143.68 617.713 146.609 615.009C149.762 612.306 151.565 612.081 155.394 614.108C160.125 616.586 160.125 617.037 156.295 621.092C153.142 624.471 152.916 625.822 155.394 628.751C159.224 633.256 159.9 633.031 170.938 619.965C179.724 609.828 180.175 608.702 176.795 605.322C173.416 601.943 172.966 602.169 168.911 607.35C164.856 612.756 164.631 612.756 160.125 608.702L155.394 604.421L159.9 599.465C163.279 595.861 163.729 594.059 161.702 592.031C157.647 587.976 156.746 588.427 146.609 599.465Z" fill="#3F008E"/>
<path d="M562.241 601.718C559.988 603.52 558.861 605.773 559.537 606.899C561.339 610.053 552.554 617.037 548.724 615.685C546.922 615.009 544.219 615.91 542.642 617.713C539.263 621.768 539.938 622.218 557.059 631.229C565.394 635.509 568.774 636.185 572.153 634.383C577.109 631.68 576.883 629.202 570.125 609.152C566.746 599.465 566.07 599.015 562.241 601.718ZM566.07 623.119C566.971 626.949 566.521 627.174 562.916 625.147C558.411 622.894 557.51 620.416 559.988 617.938C562.241 615.685 564.719 617.938 566.07 623.119Z" fill="#3F008E"/>
<path d="M182.653 626.723C179.273 644.295 179.499 647.449 184.455 649.927C190.537 653.306 215.543 635.509 211.488 630.778C210.136 628.976 207.207 628.075 205.18 628.751C200.449 630.103 196.169 627.399 193.015 620.866C188.284 611.63 185.356 613.432 182.653 626.723ZM195.944 634.157C195.944 635.284 194.367 637.311 192.565 638.888C189.636 641.141 189.186 640.916 189.186 636.861C189.186 634.157 190.537 632.13 192.565 632.13C194.367 632.13 195.944 633.031 195.944 634.157Z" fill="#3F008E"/>
<path d="M520.79 632.13C514.482 637.987 514.482 639.339 522.142 652.63C528.675 664.57 528.9 664.57 533.631 661.641C536.559 659.839 536.109 657.586 530.927 648.125C525.07 637.762 525.521 631.68 531.603 635.509C532.955 636.41 535.658 635.734 537.46 634.158C540.164 631.905 540.164 631.004 537.911 629.652C532.955 626.273 525.971 627.399 520.79 632.13Z" fill="#3F008E"/>
<path d="M215.768 650.152C211.037 656.235 207.207 662.317 207.207 663.443C207.207 668.625 213.29 667.048 218.922 660.515L225.004 653.531L223.653 662.993C222.076 675.833 227.257 678.311 236.718 669.075C244.153 662.092 244.153 662.092 241.224 672.229C239.422 678.311 239.647 679.888 243.251 681.691C247.081 683.718 247.757 682.592 250.01 670.877C251.361 663.894 252.938 656.685 253.389 655.333C253.839 653.756 252.262 651.504 250.01 650.152C246.405 648.125 244.378 649.026 238.521 655.108L231.537 662.542L232.889 651.954C233.79 643.844 233.339 641.366 230.636 640.24C225.229 638.213 224.554 638.438 215.768 650.152Z" fill="#3F008E"/>
<path d="M500.741 642.718C499.164 643.169 497.812 645.196 497.812 646.773C497.812 651.053 490.153 655.108 485.647 653.306C483.62 652.63 480.241 652.63 478.213 653.306C475.285 654.658 476.636 657.136 486.548 667.048C497.136 677.861 498.938 678.762 503.669 676.735C508.175 674.707 509.076 672.454 509.076 664.795C509.076 653.531 506.823 641.141 504.796 641.366C504.12 641.366 502.092 642.042 500.741 642.718ZM500.065 662.993C499.839 669.075 499.839 669.075 496.686 665.02C493.532 660.74 493.982 656.91 498.037 656.91C499.164 656.91 500.065 659.614 500.065 662.993Z" fill="#3F008E"/>
<path d="M266.004 672.905C267.356 687.998 269.834 692.954 275.916 692.954C277.268 692.954 282.9 686.872 288.757 679.663C298.669 667.273 299.12 666.372 294.389 665.02C291.911 664.344 288.532 664.795 287.18 665.921C283.801 668.625 274.79 666.147 274.79 662.542C274.79 659.839 270.059 656.91 266.004 656.91C265.103 656.91 265.103 664.119 266.004 672.905ZM281.548 674.256C281.548 675.383 279.971 678.086 278.169 680.339C275.015 684.619 274.79 684.619 274.79 678.762C274.79 674.932 275.916 672.68 278.169 672.68C279.971 672.68 281.548 673.355 281.548 674.256Z" fill="#3F008E"/>
<path d="M456.587 660.74C442.845 664.795 439.466 671.553 445.323 683.718C450.054 692.954 456.136 694.756 468.977 690.251L477.087 687.322L472.356 672.454L467.4 657.361L456.587 660.74ZM463.345 675.833C465.372 682.366 465.147 683.943 462.444 685.07C457.262 686.872 452.757 681.916 452.757 674.707C452.757 665.02 460.191 665.921 463.345 675.833Z" fill="#3F008E"/>
<path d="M308.131 670.877C304.751 673.355 299.795 688.674 299.57 696.784C299.57 698.361 301.598 699.712 304.076 699.712C309.032 699.712 309.707 698.586 311.96 685.52C312.861 680.339 314.438 677.185 316.466 677.185C318.268 677.185 319.845 678.086 319.845 679.438C319.845 680.564 321.872 681.691 324.35 681.691C326.828 681.691 328.856 680.339 328.856 678.537C328.856 671.553 314.438 666.147 308.131 670.877Z" fill="#3F008E"/>
<path d="M424.823 671.553C423.471 675.158 413.334 676.284 411.306 672.905C410.18 671.103 400.944 672.004 400.944 673.806C400.944 676.96 417.839 701.965 419.867 701.965C425.499 701.965 428.653 697.46 431.581 684.844C433.158 677.41 434.735 670.877 434.735 669.751C434.735 666.597 426.174 668.174 424.823 671.553ZM423.471 686.196C423.471 688.674 422.57 690.702 421.218 690.702C420.092 690.702 418.966 690.251 418.966 689.8C418.966 689.35 418.29 687.322 417.614 685.295C416.713 682.817 417.389 681.691 419.867 681.691C421.894 681.691 423.471 683.493 423.471 686.196Z" fill="#3F008E"/>
<path d="M363.323 683.267C361.746 683.718 360.394 686.872 360.394 689.8C360.394 694.081 361.521 695.207 366.026 695.207C372.784 695.207 375.713 689.8 371.658 685.07C368.729 681.465 367.828 681.24 363.323 683.267Z" fill="#3F008E"/>
<path d="M177.021 729.449C176.345 732.377 175.444 739.811 174.993 746.344C174.317 756.482 174.768 758.059 179.048 760.086C183.103 761.888 185.581 760.762 195.493 752.201C208.109 741.388 209.235 739.361 203.378 737.108C200.9 735.982 196.845 738.234 190.988 744.092L182.427 752.427L183.554 744.767C184.455 740.487 185.356 735.081 185.806 732.828C186.257 730.8 184.68 727.872 182.202 726.745C178.823 724.718 177.922 725.394 177.021 729.449Z" fill="#3F008E"/>
<path d="M532.504 733.954C528.449 735.756 527.999 737.333 529.35 744.993C530.252 749.723 530.477 753.778 530.026 753.778C529.576 753.778 526.647 750.85 523.493 747.02C518.537 741.163 517.186 740.712 512.23 742.965C509.301 744.317 506.823 746.344 506.823 747.245C506.823 750.85 518.988 774.053 520.79 774.053C524.62 774.053 525.07 767.52 521.691 760.762C516.284 750.399 517.411 749.949 525.521 759.41C535.208 770.449 539.262 768.647 537.46 754.004L536.109 743.641L541.065 753.103C544.894 760.086 547.147 762.114 549.4 760.762C551.878 759.185 551.202 756.256 546.246 744.993C539.488 730.35 539.713 730.35 532.504 733.954Z" fill="#3F008E"/>
<path d="M206.081 752.877C199.323 767.971 199.098 771.8 204.504 771.8C207.433 771.8 210.361 767.745 214.642 758.284C220.273 745.218 220.273 744.767 215.993 742.515C212.164 740.487 211.037 741.614 206.081 752.877Z" fill="#3F008E"/>
<path d="M224.554 748.597C221.4 751.526 223.202 753.553 229.735 754.905C233.565 755.806 236.493 757.158 236.493 758.059C236.493 758.96 231.537 762.114 225.229 765.042C219.147 767.971 213.966 771.575 213.966 773.152C213.966 774.729 219.372 777.658 225.905 779.91C232.213 781.938 238.971 784.191 240.548 784.866C241.9 785.317 243.251 784.191 243.251 782.388C243.251 780.361 240.323 778.333 236.493 777.432C226.131 775.18 226.581 772.927 238.746 767.295C254.29 760.086 254.29 757.158 239.647 751.751C225.455 746.344 226.356 746.57 224.554 748.597Z" fill="#3F008E"/>
<path d="M484.971 753.103C482.944 753.778 482.043 759.636 482.043 770.674C482.043 785.993 482.268 787.119 486.548 785.993C489.026 785.317 491.054 783.289 491.054 781.712C491.054 776.982 500.29 774.053 505.021 777.207C507.949 779.009 509.751 778.784 511.554 776.982C513.581 774.954 511.779 771.575 504.57 763.015C495.334 752.201 491.729 750.174 484.971 753.103ZM496.46 769.998C493.982 773.828 491.054 771.35 491.054 765.718C491.054 759.861 491.279 759.861 494.208 763.916C496.01 766.394 496.911 769.097 496.46 769.998Z" fill="#3F008E"/>
<path d="M255.642 760.987C250.01 776.306 248.208 786.443 250.686 788.02C256.543 791.625 258.57 788.245 264.427 764.366C265.554 759.185 265.103 758.284 261.273 758.284C258.795 758.284 256.092 759.636 255.642 760.987Z" fill="#3F008E"/>
<path d="M449.153 763.015L442.169 765.042L445.548 779.685C448.702 792.526 449.828 794.328 453.883 793.877C457.262 793.427 458.164 791.85 457.713 786.894C456.812 779.685 458.614 779.235 465.372 785.542C468.977 788.921 471.905 789.822 475.284 788.696L480.24 787.119L474.609 781.262C470.328 776.531 469.427 774.279 471.455 771.575C477.537 762.114 466.499 757.833 449.153 763.015ZM463.57 769.998C462.894 771.575 460.642 772.927 458.389 772.927C456.136 772.927 453.883 771.575 453.433 769.998C452.757 768.421 454.559 767.295 458.389 767.295C462.219 767.295 464.021 768.421 463.57 769.998Z" fill="#3F008E"/>
<path d="M272.087 775.855C267.356 783.064 263.526 789.597 263.526 790.273C263.526 790.949 265.554 792.075 268.032 792.751C270.51 793.427 272.537 792.976 272.537 791.85C272.537 790.724 275.691 789.822 279.295 789.822C283.801 789.822 286.054 790.949 286.054 793.202C286.054 795.004 286.955 796.581 288.081 796.581C289.208 796.581 291.686 797.031 293.488 797.932C296.191 798.833 296.416 796.806 293.938 783.064C291.01 765.493 291.235 766.169 284.927 764.141C281.323 763.24 278.845 765.493 272.087 775.855ZM283.35 782.839C279.971 783.965 279.07 781.938 280.872 777.432C282.224 773.377 282.449 773.377 283.801 777.658C284.702 779.91 284.477 782.388 283.35 782.839Z" fill="#3F008E"/>
<path d="M302.949 782.163C301.598 793.427 302.048 797.482 304.301 798.833C308.581 801.762 310.834 799.284 310.834 791.85C310.834 783.29 313.988 783.515 317.592 792.075C320.746 799.509 328.18 804.916 331.109 801.762C332.01 800.861 333.361 793.652 334.263 785.768C335.389 772.927 335.164 771.8 331.109 771.8C327.955 771.8 326.378 773.828 325.252 780.136L323.675 788.246L319.169 779.46C313.988 768.872 315.114 770.449 309.257 768.647C304.752 767.295 304.301 767.971 302.949 782.163Z" fill="#3F008E"/>
<path d="M417.839 769.998C417.164 771.575 415.361 779.234 413.559 786.894C410.405 800.41 410.631 801.086 414.46 801.086C416.938 801.086 419.642 799.734 420.543 798.158C423.246 793.652 432.482 791.85 433.834 795.454C434.96 797.932 443.746 797.707 443.746 795.004C443.746 794.553 440.367 788.02 436.537 780.586C430.905 770.449 427.977 767.295 423.922 767.295C421.219 767.295 418.29 768.647 417.839 769.998ZM427.752 782.388C430.004 786.894 429.779 787.57 426.175 787.57C422.795 787.57 422.12 786.443 423.021 781.938C424.147 775.405 424.147 775.405 427.752 782.388Z" fill="#3F008E"/>
<path d="M345.751 779.685C343.949 783.965 340.795 791.174 338.993 795.454C335.614 803.339 335.614 803.339 341.246 803.339C344.4 803.339 346.878 802.213 346.878 801.086C346.878 799.735 350.032 798.833 353.636 798.833C357.466 798.833 360.394 799.735 360.394 801.086C360.394 802.213 362.872 803.339 365.801 803.339H370.982L365.35 787.57C360.62 774.053 359.043 771.8 354.537 771.8C350.482 771.8 348.23 773.828 345.751 779.685ZM356.565 787.57C357.241 790.498 356.565 792.075 354.537 792.075C352.735 792.075 351.383 790.048 351.383 787.57C351.383 785.092 352.284 783.064 353.411 783.064C354.537 783.064 355.889 785.092 356.565 787.57Z" fill="#3F008E"/>
<path d="M377.515 775.18C367.153 785.767 373.235 801.537 388.103 802.888C399.592 803.789 405.449 800.185 405.449 792.075C405.449 785.767 404.773 785.317 397.565 785.317C392.158 785.317 389.68 786.443 389.68 788.696C389.68 790.723 391.708 792.075 394.636 792.075C398.241 792.075 398.916 792.751 397.114 794.553C395.763 795.905 392.383 796.581 389.455 796.13C384.949 795.68 384.048 794.103 384.048 787.57C384.048 779.91 384.273 779.685 393.059 779.685C399.592 779.685 402.07 778.784 402.07 776.306C402.07 771.35 382.471 770.449 377.515 775.18Z" fill="#3F008E"/>
<path d="M539.262 814.377C527.999 820.235 509.977 828.344 499.389 832.625C481.367 839.608 475.059 843.888 482.944 843.888C484.971 843.888 487.224 848.394 489.026 855.377C491.73 865.515 496.01 871.147 498.938 868.218C499.389 867.768 498.488 862.361 496.46 856.279C494.658 850.196 493.757 843.888 494.208 842.537C495.334 839.383 519.889 829.246 521.916 831.048C524.394 833.526 517.636 839.383 512.455 839.383C506.147 839.383 499.614 846.592 501.416 851.548C502.317 853.575 505.922 856.954 509.751 858.757C515.158 861.685 516.735 861.685 518.312 859.432C519.438 857.405 517.861 855.603 513.131 853.575C507.273 851.097 506.823 850.196 509.076 847.268C511.103 844.789 512.68 844.564 514.933 846.366C518.537 849.295 522.592 847.268 522.592 842.537C522.592 836.905 525.971 839.158 529.35 847.268C531.603 852.674 533.631 854.476 535.658 853.35C537.911 851.773 537.46 848.844 533.631 839.608C529.801 830.822 529.35 827.218 531.153 825.416C534.757 821.811 538.812 825.866 539.262 833.075C539.488 839.158 549.625 842.311 549.625 836.229C549.625 834.427 551.653 831.724 553.905 830.372C557.51 828.57 559.087 829.02 561.79 832.85C568.098 842.086 570.125 835.103 564.268 823.839C561.114 817.531 559.312 810.998 560.213 808.07C560.889 805.592 561.114 803.339 560.664 803.564C560.213 803.564 550.526 808.52 539.262 814.377ZM552.554 825.191C547.372 829.02 545.795 828.795 544.219 824.289C543.092 821.811 544.219 819.333 546.697 817.306C550.076 814.828 551.202 815.053 553.68 818.432C556.158 821.811 555.933 822.938 552.554 825.191Z" fill="#3F008E"/>
<path d="M170.037 807.844C169.136 809.196 170.262 810.773 172.065 811.449C177.246 813.476 176.345 816.63 170.037 819.108C166.883 820.235 164.405 822.487 164.405 824.289C164.405 829.246 171.164 837.13 175.669 837.13C178.823 837.13 179.949 838.482 179.499 841.861C178.598 851.097 183.779 848.394 189.185 837.13C192.79 829.471 195.718 825.866 198.647 825.866C203.603 825.866 202.927 829.921 195.718 844.339C192.114 851.548 191.889 852.674 195.043 853.8C197.521 854.702 199.999 851.773 204.054 842.762C209.01 831.498 209.911 830.372 213.966 832.625C219.598 835.553 219.598 836.004 213.966 841.185C211.037 843.888 209.911 846.817 210.812 849.07C213.065 855.377 218.246 853.35 221.625 845.015C223.427 840.735 226.131 837.13 227.482 837.13C231.762 837.13 232.438 843.213 228.834 851.773C224.554 862.136 224.328 866.416 228.158 866.416C229.735 866.416 232.889 861.235 235.142 855.152C237.394 848.844 240.548 843.888 242.35 843.888C244.153 843.888 245.504 842.537 245.504 840.96C245.504 839.608 237.845 835.328 228.609 831.949C212.164 825.866 211.713 825.416 211.713 817.982C211.713 812.575 210.361 809.421 207.207 807.844C200.449 804.24 197.746 807.394 202.702 812.35C207.658 817.306 208.559 821.361 204.955 821.361C203.603 821.361 195.493 817.756 186.933 813.476C177.696 808.745 170.938 806.493 170.037 807.844ZM186.482 818.883C188.735 820.235 188.96 821.811 186.707 826.542C183.779 833.075 177.696 834.427 173.642 829.471C171.389 826.993 171.839 825.866 175.444 824.74C178.147 824.064 180.175 821.811 180.175 820.009C180.175 816.405 182.202 815.954 186.482 818.883Z" fill="#3F008E"/>
<path d="M432.482 837.13C429.779 838.932 430.455 839.383 435.186 839.383C438.565 839.383 441.944 840.509 442.62 841.861C443.521 843.213 442.845 844.114 441.268 843.663C434.96 842.987 430.004 843.888 431.131 845.916C431.806 846.817 435.186 847.268 438.339 846.592C442.169 845.916 443.971 846.366 443.07 847.718C442.169 849.07 432.032 851.322 420.092 852.899C406.801 854.927 398.691 856.954 398.691 858.531C398.691 860.333 402.295 861.009 409.955 860.108C421.219 858.982 421.219 858.982 421.219 865.965C421.219 873.625 415.587 879.707 411.757 875.877C408.828 872.949 411.306 868.669 415.812 868.669C417.839 868.669 418.966 867.317 418.29 865.74C416.262 859.883 403.197 866.191 403.197 873.174C403.197 879.257 409.054 882.861 416.713 881.284C420.543 880.608 423.471 881.059 423.471 882.185C423.471 883.537 425.048 884.438 427.076 884.438C429.779 884.438 430.455 882.636 429.779 877.229C429.328 871.597 430.004 869.57 433.158 869.119C436.087 868.443 436.988 869.795 436.988 874.075C436.988 877.68 438.339 879.932 440.367 879.932C442.62 879.932 443.746 877.68 443.746 873.174C443.746 865.965 437.664 861.009 431.581 863.262C429.328 864.163 427.977 863.487 427.977 861.235C427.977 857.855 434.284 855.152 443.295 855.152C446.449 855.152 448.251 856.504 448.251 858.982C448.251 867.317 452.982 879.932 456.136 879.932C460.191 879.932 460.191 879.482 456.361 864.839C452.757 851.773 454.784 847.718 461.768 854.026C464.246 856.278 467.625 857.405 469.878 856.504C473.482 855.152 473.257 854.702 469.427 851.998C467.175 850.196 465.823 847.943 466.724 847.042C468.977 845.015 475.284 850.421 475.284 854.251C475.284 855.828 472.581 858.531 469.427 860.108C461.768 863.938 461.317 867.542 468.526 867.768C471.68 867.993 476.636 869.119 479.339 870.696C483.394 872.949 484.295 872.724 484.295 869.795C484.295 867.768 482.944 865.74 481.142 865.064C478.664 864.163 478.438 862.586 480.466 857.405C482.493 851.998 482.268 850.196 478.664 846.366C473.933 840.96 468.751 840.284 462.894 844.789C457.713 848.394 453.433 847.268 446.675 840.059C441.268 834.427 437.664 833.751 432.482 837.13Z" fill="#3F008E"/>
<path d="M341.021 843.438C339.669 844.339 337.867 847.267 336.966 849.971C334.938 856.729 325.927 856.729 294.839 850.647C281.999 848.169 271.186 846.592 270.735 847.267C268.482 849.52 273.213 852.449 281.548 853.8C291.235 855.377 291.686 856.278 288.306 865.064C285.828 872.048 276.142 873.625 277.493 866.866C277.944 864.614 279.971 863.262 282.224 863.712C284.477 864.163 286.054 862.811 286.054 860.784C286.054 856.278 276.142 856.278 271.636 861.009C267.356 865.064 267.356 865.515 270.284 871.147C271.861 873.85 275.015 875.427 279.295 875.427C283.576 875.427 286.054 876.553 286.054 878.581C286.054 884.888 291.686 883.537 293.938 877.004C297.092 867.317 302.499 866.19 301.372 874.976C300.471 883.311 304.076 884.888 307.905 877.68C311.284 871.147 308.131 864.163 301.823 864.163C299.12 864.163 297.317 862.586 297.317 860.559C297.317 857.63 298.894 857.18 304.301 858.306C308.131 858.982 312.861 859.658 314.438 859.658C318.043 859.658 318.718 870.245 315.114 871.372C313.988 871.822 313.537 873.85 314.213 876.103C316.015 880.383 323.449 881.284 324.801 877.454C325.251 875.877 327.729 875.427 330.883 876.553C334.938 877.68 335.614 879.256 334.488 883.762C333.361 888.267 334.037 889.169 337.191 888.493C340.345 888.042 341.471 884.888 342.372 875.427C343.499 863.262 343.724 863.037 350.933 862.361C356.339 861.91 358.142 862.586 358.142 865.064C358.142 867.092 356.339 868.669 353.861 868.669C346.202 868.669 346.427 872.723 354.988 882.185C361.07 888.943 363.999 890.745 365.801 888.943C367.603 887.141 366.702 885.339 362.647 882.185C355.664 877.004 356.79 875.877 368.054 877.229C376.389 878.13 376.614 878.355 375.488 885.789C374.361 892.322 374.812 893.449 378.642 893.449C380.894 893.449 382.922 894.575 382.922 895.927C382.922 898.18 374.587 897.954 368.279 895.476C362.872 893.449 364.9 899.306 370.306 902.009C382.021 907.866 393.96 899.756 386.301 891.196C382.471 886.916 381.345 861.91 385.175 861.91C386.526 861.91 387.427 860.784 387.427 859.658C387.427 858.306 378.416 857.405 364.9 857.405C343.724 857.405 342.372 857.18 342.372 852.899C342.372 850.421 343.949 847.718 345.751 847.042C347.554 846.141 349.131 844.789 349.131 843.663C349.131 841.185 344.4 840.96 341.021 843.438ZM335.614 866.641C335.614 869.795 334.037 870.921 329.982 870.921C325.927 870.921 324.35 869.795 324.35 866.866C324.35 861.234 325.927 859.883 331.334 861.234C333.587 861.91 335.614 864.388 335.614 866.641ZM376.164 866.19C376.164 868.894 374.136 870.696 370.532 871.372C365.801 872.273 364.9 871.597 364.9 867.317C364.9 863.037 366.026 861.91 370.532 861.91C374.587 861.91 376.164 863.037 376.164 866.19Z" fill="#3F008E"/>
<path d="M247.081 847.718C244.378 850.196 245.279 852.899 248.883 852.899C250.686 852.899 252.262 851.322 252.262 849.52C252.262 845.916 249.559 845.015 247.081 847.718Z" fill="#3F008E"/>
<path d="M242.576 863.487C239.872 865.965 240.773 868.669 244.378 868.669C246.18 868.669 247.757 867.092 247.757 865.289C247.757 861.685 245.054 860.784 242.576 863.487Z" fill="#3F008E"/>
<path fill-rule="evenodd" clip-rule="evenodd" d="M287.405 407.306C284.026 394.916 281.548 383.427 281.548 382.075C281.548 380.498 288.306 385.229 296.867 392.663C328.856 420.597 348.229 432.537 376.164 440.872C395.537 446.729 427.977 448.081 436.312 443.35C440.367 441.097 442.845 441.097 449.153 443.8C462.219 449.207 461.768 451.46 443.07 468.581C432.708 478.267 424.372 487.954 422.345 493.361C418.74 501.696 418.29 501.921 410.18 500.795L401.394 499.669L398.916 512.284C397.565 519.042 396.889 525.125 397.565 525.8C397.861 526.097 398.466 526.19 399.329 526.105L399 526.5C395.465 527.719 388.116 529.776 380.823 530.636C385.842 528.901 386.388 524.124 383.823 510.707C382.922 505.976 381.12 503.724 378.416 503.724C373.235 503.724 371.658 508.229 371.658 521.52C371.658 527.338 371.658 529.959 372.779 530.99C361.752 530.509 344.475 529.565 333.868 526.869L339.669 520.844C344.625 516.114 345.301 514.086 343.273 510.932C339.894 505.751 328.856 504.399 328.856 509.355C328.856 513.861 324.576 512.735 321.197 507.553C318.043 502.597 325.026 494.713 331.334 496.289C337.867 498.092 336.515 494.262 327.054 483.224C306.103 459.119 295.065 438.169 287.405 407.306ZM333.276 526.714L332.329 526.339C332.386 526.393 332.443 526.446 332.5 526.5C332.754 526.573 333.013 526.644 333.276 526.714ZM222.527 450.482C222.261 450.459 222.035 450.485 221.85 450.559C220.545 451.048 219.634 451.577 219.186 452.297C220.214 451.695 221.326 451.089 222.527 450.482Z" fill="#660000"/>
</svg>
