<svg xmlns="http://www.w3.org/2000/svg" width="128" height="128" viewBox="0 0 128 128">
  <title>BOOK</title>
  <g>
    <path d="M106.809,115a13.346,13.346,0,0,1,0-18.356h-80.9a4.71,4.71,0,0,0-4.71,4.71v8.936a4.71,4.71,0,0,0,4.71,4.71Z" fill="#dbedff"/>
    <polygon points="42.943 105.82 42.943 121.693 37.823 116.573 32.703 121.693 32.703 105.82 42.943 105.82" fill="#f87c68"/>
    <path d="M25.906,6.307a4.71,4.71,0,0,0-4.71,4.71v90.335a4.71,4.71,0,0,1,4.71-4.71h80.9V6.307Z" fill="#64d465"/>
    <path d="M32.7,6.31V96.64H25.9a4.712,4.712,0,0,0-4.71,4.71V11.02A4.712,4.712,0,0,1,25.9,6.31Z" fill="#40c140"/>
    <rect x="50.454" y="24.058" width="38.604" height="20.653" fill="#dbedff"/>
    <path d="M103.15,105.82a11,11,0,0,0,.13,1.75H32.7a1.75,1.75,0,0,1,0-3.5h70.58A11,11,0,0,0,103.15,105.82Z" fill="#b5dcff"/>
  </g>
</svg>
